<svg width="1080" height="1080" viewBox="0 0 1080 1080" fill="none" xmlns="http://www.w3.org/2000/svg">
<g clip-path="url(#clip0_85_75)">
<path d="M860.35 513.748C860.277 512.923 859.549 512.313 858.723 512.386C857.898 512.459 857.288 513.187 857.361 514.012L860.35 513.748ZM820.663 696.348L819.347 695.628L820.663 696.348ZM687.532 826.846L688.226 828.176L687.532 826.846ZM504.338 861.388L504.176 862.88L504.338 861.388ZM230.808 632.3L232.248 631.879L230.808 632.3ZM232.67 445.887L231.239 445.437L232.67 445.887ZM337.783 291.924L336.843 290.755L337.783 291.924ZM510.719 222.306L494.864 215.332L496.752 232.55L510.719 222.306ZM857.361 514.012C862.929 576.978 849.7 640.181 819.347 695.628L821.978 697.069C852.616 641.101 865.969 577.305 860.35 513.748L857.361 514.012ZM819.347 695.628C788.994 751.075 742.881 796.277 686.838 825.516L688.226 828.176C744.795 798.662 791.341 753.036 821.978 697.069L819.347 695.628ZM686.838 825.516C630.796 854.756 567.342 866.721 504.5 859.897L504.176 862.88C567.608 869.767 631.658 857.69 688.226 828.176L686.838 825.516ZM504.5 859.897C441.658 853.073 382.25 827.768 333.79 787.181L331.863 789.481C380.779 830.449 440.744 855.992 504.176 862.88L504.5 859.897ZM333.79 787.181C285.329 746.595 249.993 692.549 232.248 631.879L229.369 632.721C247.28 693.961 282.948 748.514 331.863 789.481L333.79 787.181ZM232.248 631.879C214.504 571.209 215.148 506.64 234.101 446.337L231.239 445.437C212.108 506.307 211.458 571.482 229.369 632.721L232.248 631.879ZM234.101 446.337C253.053 386.033 289.462 332.704 338.723 293.093L336.843 290.755C287.12 330.738 250.369 384.568 231.239 445.437L234.101 446.337ZM338.723 293.093C384.489 256.292 439.439 232.867 497.498 225.264L497.109 222.29C438.504 229.964 383.039 253.609 336.843 290.755L338.723 293.093Z" fill="black"/>
<path d="M550.24 208.785C550.24 210.432 549.915 212.013 549.265 213.53C548.615 215.047 547.77 216.52 546.73 217.95C545.69 219.337 544.52 220.68 543.22 221.98C541.92 223.28 540.642 224.515 539.385 225.685C538.735 226.292 538.02 226.985 537.24 227.765C536.504 228.502 535.789 229.26 535.095 230.04C534.402 230.82 533.774 231.557 533.21 232.25C532.69 232.9 532.365 233.442 532.235 233.875H551.605V242H521.575C521.489 241.523 521.445 240.917 521.445 240.18C521.445 239.443 521.445 238.923 521.445 238.62C521.445 236.54 521.77 234.633 522.42 232.9C523.114 231.167 524.002 229.563 525.085 228.09C526.169 226.573 527.382 225.165 528.725 223.865C530.112 222.565 531.477 221.265 532.82 219.965C533.86 218.968 534.835 218.037 535.745 217.17C536.655 216.26 537.457 215.393 538.15 214.57C538.844 213.703 539.385 212.858 539.775 212.035C540.165 211.168 540.36 210.302 540.36 209.435C540.36 207.528 539.819 206.185 538.735 205.405C537.652 204.625 536.309 204.235 534.705 204.235C533.535 204.235 532.43 204.43 531.39 204.82C530.394 205.167 529.462 205.6 528.595 206.12C527.772 206.597 527.057 207.095 526.45 207.615C525.844 208.092 525.389 208.482 525.085 208.785L520.275 202.025C522.182 200.248 524.392 198.797 526.905 197.67C529.462 196.5 532.192 195.915 535.095 195.915C537.739 195.915 540.014 196.218 541.92 196.825C543.827 197.432 545.387 198.298 546.6 199.425C547.857 200.508 548.767 201.852 549.33 203.455C549.937 205.015 550.24 206.792 550.24 208.785Z" fill="black"/>
<path d="M571.43 186.61C571.43 187.33 571.28 188.04 570.98 188.74C570.68 189.42 570.29 190.09 569.81 190.75C569.35 191.39 568.82 192.02 568.22 192.64C567.62 193.24 567.02 193.83 566.42 194.41C566.1 194.71 565.74 195.07 565.34 195.49C564.94 195.91 564.56 196.33 564.2 196.75C563.84 197.17 563.53 197.58 563.27 197.98C563.01 198.36 562.87 198.68 562.85 198.94H572.09V202H558.86C558.84 201.84 558.83 201.65 558.83 201.43C558.83 201.19 558.83 201.01 558.83 200.89C558.83 199.93 558.98 199.05 559.28 198.25C559.6 197.43 560.01 196.67 560.51 195.97C561.01 195.27 561.57 194.61 562.19 193.99C562.81 193.37 563.43 192.76 564.05 192.16C564.53 191.7 564.99 191.25 565.43 190.81C565.87 190.37 566.25 189.94 566.57 189.52C566.91 189.08 567.18 188.64 567.38 188.2C567.58 187.74 567.68 187.27 567.68 186.79C567.68 185.75 567.38 185.01 566.78 184.57C566.18 184.13 565.45 183.91 564.59 183.91C564.03 183.91 563.51 183.99 563.03 184.15C562.55 184.31 562.12 184.5 561.74 184.72C561.38 184.94 561.06 185.17 560.78 185.41C560.5 185.63 560.29 185.81 560.15 185.95L558.35 183.4C559.19 182.6 560.17 181.96 561.29 181.48C562.43 180.98 563.65 180.73 564.95 180.73C567.17 180.73 568.8 181.26 569.84 182.32C570.9 183.36 571.43 184.79 571.43 186.61ZM585.541 196.06C585.541 195.4 585.411 194.81 585.151 194.29C584.891 193.77 584.431 193.33 583.771 192.97C583.131 192.61 582.261 192.34 581.161 192.16C580.081 191.98 578.711 191.89 577.051 191.89C577.271 189.97 577.441 188.15 577.561 186.43C577.681 184.69 577.781 182.95 577.861 181.21H588.481V184.27H580.951C580.931 184.61 580.901 185 580.861 185.44C580.841 185.86 580.811 186.29 580.771 186.73C580.751 187.17 580.721 187.59 580.681 187.99C580.641 188.39 580.601 188.73 580.561 189.01C583.521 189.17 585.701 189.85 587.101 191.05C588.521 192.23 589.231 193.85 589.231 195.91C589.231 196.85 589.071 197.72 588.751 198.52C588.431 199.32 587.941 200.01 587.281 200.59C586.621 201.17 585.791 201.63 584.791 201.97C583.791 202.29 582.621 202.45 581.281 202.45C580.741 202.45 580.191 202.41 579.631 202.33C579.071 202.25 578.531 202.15 578.011 202.03C577.511 201.93 577.061 201.82 576.661 201.7C576.261 201.58 575.961 201.47 575.761 201.37L576.451 198.31C576.871 198.51 577.471 198.73 578.251 198.97C579.051 199.19 580.021 199.3 581.161 199.3C581.941 199.3 582.611 199.22 583.171 199.06C583.731 198.88 584.181 198.64 584.521 198.34C584.881 198.04 585.141 197.7 585.301 197.32C585.461 196.92 585.541 196.5 585.541 196.06ZM599.562 191.89C598.982 191.89 598.422 191.94 597.882 192.04C597.342 192.14 596.852 192.29 596.412 192.49C596.392 192.65 596.372 192.83 596.352 193.03C596.352 193.21 596.352 193.39 596.352 193.57C596.352 194.37 596.402 195.13 596.502 195.85C596.622 196.55 596.812 197.17 597.072 197.71C597.352 198.23 597.722 198.65 598.182 198.97C598.662 199.27 599.252 199.42 599.952 199.42C600.532 199.42 601.022 199.3 601.422 199.06C601.842 198.82 602.182 198.51 602.442 198.13C602.702 197.75 602.892 197.34 603.012 196.9C603.132 196.44 603.192 196 603.192 195.58C603.192 194.38 602.902 193.47 602.322 192.85C601.742 192.21 600.822 191.89 599.562 191.89ZM600.012 189.01C601.252 189.01 602.302 189.19 603.162 189.55C604.042 189.89 604.752 190.36 605.292 190.96C605.832 191.56 606.222 192.26 606.462 193.06C606.722 193.84 606.852 194.66 606.852 195.52C606.852 196.3 606.712 197.1 606.432 197.92C606.172 198.74 605.752 199.49 605.172 200.17C604.612 200.83 603.902 201.38 603.042 201.82C602.182 202.24 601.162 202.45 599.982 202.45C597.602 202.45 595.782 201.67 594.522 200.11C593.282 198.53 592.662 196.36 592.662 193.6C592.662 191.6 592.952 189.83 593.532 188.29C594.132 186.73 594.972 185.42 596.052 184.36C597.152 183.3 598.472 182.5 600.012 181.96C601.572 181.4 603.322 181.11 605.262 181.09L605.472 184.09C604.392 184.11 603.382 184.23 602.442 184.45C601.502 184.65 600.662 184.97 599.922 185.41C599.182 185.85 598.542 186.42 598.002 187.12C597.482 187.82 597.082 188.68 596.802 189.7C597.782 189.24 598.852 189.01 600.012 189.01Z" fill="black"/>
<circle cx="857.335" cy="496.026" r="2.76813" fill="black"/>
<circle cx="853.644" cy="472.035" r="2.76813" fill="black"/>
<circle cx="847.185" cy="448.045" r="2.76813" fill="black"/>
<path d="M646.056 232.558C647.196 232.118 648.306 231.558 649.386 230.878C650.466 230.178 651.456 229.308 652.356 228.268H654.336V249.058H651.546V232.138C651.306 232.358 651.006 232.588 650.646 232.828C650.306 233.068 649.926 233.298 649.506 233.518C649.106 233.738 648.676 233.948 648.216 234.148C647.776 234.348 647.346 234.518 646.926 234.658L646.056 232.558Z" fill="black"/>
<path d="M719.098 264.95C719.098 265.67 718.948 266.37 718.648 267.05C718.368 267.71 717.988 268.37 717.508 269.03C717.028 269.67 716.488 270.31 715.888 270.95C715.288 271.57 714.688 272.18 714.088 272.78C713.748 273.12 713.348 273.52 712.888 273.98C712.448 274.44 712.028 274.92 711.628 275.42C711.228 275.92 710.888 276.4 710.608 276.86C710.348 277.32 710.218 277.72 710.218 278.06H719.788V280.43H707.188C707.168 280.31 707.158 280.19 707.158 280.07C707.158 279.95 707.158 279.84 707.158 279.74C707.158 278.8 707.308 277.93 707.608 277.13C707.928 276.31 708.338 275.54 708.838 274.82C709.338 274.1 709.898 273.42 710.518 272.78C711.138 272.14 711.748 271.52 712.348 270.92C712.848 270.44 713.318 269.97 713.758 269.51C714.218 269.03 714.618 268.56 714.958 268.1C715.318 267.62 715.598 267.13 715.798 266.63C716.018 266.13 716.128 265.6 716.128 265.04C716.128 264.44 716.028 263.93 715.828 263.51C715.648 263.09 715.398 262.74 715.078 262.46C714.758 262.18 714.378 261.98 713.938 261.86C713.518 261.72 713.068 261.65 712.588 261.65C712.008 261.65 711.478 261.73 710.998 261.89C710.518 262.05 710.088 262.24 709.708 262.46C709.328 262.66 709.008 262.88 708.748 263.12C708.488 263.34 708.288 263.51 708.148 263.63L706.768 261.65C706.948 261.45 707.218 261.21 707.578 260.93C707.938 260.63 708.368 260.35 708.868 260.09C709.368 259.83 709.928 259.61 710.548 259.43C711.168 259.25 711.838 259.16 712.558 259.16C714.738 259.16 716.368 259.67 717.448 260.69C718.548 261.69 719.098 263.11 719.098 264.95Z" fill="black"/>
<path d="M766.308 322.68C768.088 322.68 769.358 322.33 770.118 321.63C770.898 320.93 771.288 319.99 771.288 318.81C771.288 318.05 771.128 317.41 770.808 316.89C770.488 316.37 770.068 315.96 769.548 315.66C769.028 315.34 768.418 315.12 767.718 315C767.038 314.86 766.338 314.79 765.618 314.79H764.898V312.51H765.888C766.388 312.51 766.898 312.46 767.418 312.36C767.958 312.26 768.448 312.08 768.888 311.82C769.328 311.56 769.688 311.21 769.968 310.77C770.248 310.31 770.388 309.74 770.388 309.06C770.388 308.5 770.288 308.02 770.088 307.62C769.888 307.22 769.618 306.89 769.278 306.63C768.958 306.37 768.578 306.19 768.138 306.09C767.718 305.97 767.268 305.91 766.788 305.91C765.828 305.91 765.008 306.05 764.328 306.33C763.668 306.61 763.108 306.9 762.648 307.2L761.568 305.07C761.808 304.91 762.108 304.74 762.468 304.56C762.848 304.36 763.268 304.18 763.728 304.02C764.188 303.86 764.678 303.73 765.198 303.63C765.738 303.51 766.298 303.45 766.878 303.45C767.978 303.45 768.928 303.59 769.728 303.87C770.528 304.13 771.188 304.51 771.708 305.01C772.228 305.49 772.618 306.07 772.878 306.75C773.138 307.41 773.268 308.13 773.268 308.91C773.268 309.99 772.958 310.92 772.338 311.7C771.718 312.46 770.968 313.04 770.088 313.44C770.628 313.6 771.148 313.83 771.648 314.13C772.148 314.43 772.578 314.81 772.938 315.27C773.318 315.73 773.618 316.26 773.838 316.86C774.078 317.46 774.198 318.13 774.198 318.87C774.198 319.77 774.038 320.61 773.718 321.39C773.418 322.15 772.938 322.81 772.278 323.37C771.638 323.93 770.828 324.37 769.848 324.69C768.868 325.01 767.708 325.17 766.368 325.17C765.848 325.17 765.308 325.13 764.748 325.05C764.208 324.97 763.698 324.87 763.218 324.75C762.738 324.63 762.318 324.51 761.958 324.39C761.598 324.27 761.338 324.17 761.178 324.09L761.718 321.66C762.058 321.82 762.618 322.03 763.398 322.29C764.198 322.55 765.168 322.68 766.308 322.68Z" fill="black"/>
<path d="M810.554 380.265C810.934 379.385 811.454 378.365 812.114 377.205C812.774 376.025 813.514 374.815 814.334 373.575C815.174 372.335 816.064 371.115 817.004 369.915C817.964 368.715 818.924 367.635 819.884 366.675H822.554V379.875H825.014V382.155H822.554V387.465H819.854V382.155H810.554V380.265ZM819.854 369.975C819.254 370.615 818.644 371.335 818.024 372.135C817.424 372.915 816.834 373.735 816.254 374.595C815.674 375.455 815.124 376.335 814.604 377.235C814.104 378.135 813.654 379.015 813.254 379.875H819.854V369.975Z" fill="black"/>
<path fill-rule="evenodd" clip-rule="evenodd" d="M405.577 900.32C406.272 899.869 406.469 898.94 406.018 898.245C403.128 893.792 396.424 894.426 394.419 899.342L384.034 924.803C382.052 929.664 386.504 934.688 391.568 933.305C392.367 933.087 392.838 932.262 392.62 931.463C392.402 930.664 391.577 930.193 390.778 930.411C388.112 931.139 385.769 928.494 386.812 925.936L391.231 915.101C439.751 934.972 491.684 945.197 544.126 945.2C596.704 945.203 648.773 934.93 697.404 914.963L702.232 926.455C703.221 928.809 700.96 931.224 698.547 930.392C697.763 930.123 696.91 930.539 696.64 931.322C696.37 932.105 696.786 932.959 697.57 933.229C702.435 934.905 706.991 930.037 704.998 925.293L694.203 899.596C692.37 895.234 686.182 895.249 684.371 899.621C684.054 900.386 684.418 901.264 685.183 901.581C685.948 901.898 686.826 901.534 687.143 900.769C687.934 898.86 690.636 898.853 691.437 900.758L696.242 912.197C647.979 932.009 596.306 942.203 544.126 942.2C492.073 942.197 440.525 932.047 392.364 912.324L397.197 900.475C398.287 897.803 401.931 897.458 403.502 899.878C403.953 900.573 404.882 900.771 405.577 900.32Z" fill="black"/>
<ellipse cx="538.5" cy="944.141" rx="26.5" ry="26.5" transform="rotate(-22.5558 538.5 944.141)" fill="black"/>
<path fill-rule="evenodd" clip-rule="evenodd" d="M311.698 233.103C311.738 233.93 312.442 234.568 313.27 234.528C321.296 234.14 325.905 225.23 321.583 218.458L303.239 189.719C298.991 183.063 289.072 183.692 285.702 190.831C285.349 191.58 285.67 192.474 286.419 192.827C287.169 193.181 288.063 192.86 288.416 192.111C290.778 187.107 297.732 186.666 300.71 191.332L309.387 204.926C272.887 225.482 233.795 265.853 202.37 312.353C170.782 359.095 146.795 412.244 141.008 458.034C121.007 543.243 133.119 622.343 172.03 713.323L157.137 719.839C153.41 721.47 149.731 717.835 151.138 713.911C151.425 713.112 151.039 712.247 150.278 711.979C149.516 711.711 148.666 712.141 148.38 712.94C146.077 719.362 152.1 725.314 158.201 722.644L192.279 707.734C198.512 705.007 199.102 696.097 193.257 692.958C192.545 692.576 191.648 692.875 191.254 693.626C190.859 694.377 191.116 695.296 191.828 695.678C195.487 697.643 195.118 703.221 191.216 704.929L174.778 712.121C136.042 621.539 124.106 543.091 143.947 458.643L143.965 458.566L143.975 458.488C149.664 413.316 173.398 360.581 204.856 314.033C236.181 267.68 275.02 227.675 311.003 207.459L319.053 220.071C322.136 224.9 318.848 231.256 313.124 231.533C312.296 231.573 311.658 232.276 311.698 233.103Z" fill="black"/>
<circle cx="152.159" cy="430.468" r="43" transform="rotate(67.9834 152.159 430.468)" fill="black"/>
<path fill-rule="evenodd" clip-rule="evenodd" d="M902.956 314.829C903.508 314.851 903.973 314.422 903.996 313.87C904.238 307.921 897.667 304.175 892.671 307.414L862.984 326.661C858.065 329.851 858.97 337.304 864.511 339.222C865.032 339.403 865.602 339.127 865.783 338.605C865.964 338.083 865.687 337.513 865.165 337.333C861.199 335.959 860.55 330.623 864.072 328.339L878.951 318.693C937.787 406.393 959.614 513.809 939.633 617.555C919.639 721.371 859.412 813.049 772.118 872.622L763.55 859.615C761.173 856.007 764.106 851.268 768.396 851.786C768.945 851.853 769.443 851.462 769.509 850.913C769.575 850.365 769.185 849.867 768.636 849.801C762.655 849.078 758.566 855.685 761.88 860.716L781.054 889.822C784.047 894.365 791.021 893.141 792.287 887.849C792.416 887.312 792.085 886.773 791.548 886.644C791.01 886.516 790.471 886.847 790.342 887.384C789.483 890.973 784.754 891.803 782.724 888.721L773.769 875.127C861.738 815.109 922.432 722.732 942.579 618.123C962.706 513.614 940.725 405.411 881.469 317.061L893.759 309.093C897.393 306.736 902.173 309.461 901.997 313.789C901.975 314.341 902.404 314.806 902.956 314.829Z" fill="black"/>
<circle cx="938.538" cy="621.982" r="37.3103" transform="rotate(-45.363 938.538 621.982)" fill="black"/>
<path fill-rule="evenodd" clip-rule="evenodd" d="M93.9335 550.96C94.596 551.458 95.5362 551.324 96.0336 550.661C99.5158 546.024 96.3478 539.384 90.5521 539.174L59.7814 538.056C54.0552 537.848 50.5759 544.296 53.8937 548.967C54.3733 549.643 55.3097 549.802 55.9852 549.322C56.6606 548.842 56.8193 547.906 56.3396 547.23C54.4616 544.586 56.431 540.936 59.6724 541.054L74.0932 541.578C73.9736 601.469 85.5129 660.818 108.075 716.312C130.9 772.454 164.56 823.551 207.133 866.685C249.706 909.819 300.357 944.145 356.196 967.704C411.482 991.03 470.781 1003.35 530.772 1003.97L530.415 1017.67C530.336 1020.68 526.731 1022.18 524.537 1020.12C523.934 1019.55 522.984 1019.58 522.416 1020.18C521.848 1020.78 521.877 1021.73 522.48 1022.3C526.561 1026.14 533.267 1023.35 533.414 1017.75L534.228 986.547C534.362 981.409 528.23 978.661 524.484 982.18C523.88 982.747 523.851 983.697 524.418 984.301C524.985 984.904 525.935 984.934 526.538 984.367C528.341 982.673 531.293 983.995 531.229 986.469L530.85 1000.97C471.234 1000.36 412.303 988.12 357.362 964.94C301.886 941.534 251.564 907.431 209.268 864.578C166.972 821.724 133.531 770.96 110.854 715.182C88.4516 660.081 76.9876 601.154 77.093 541.687L90.4432 542.172C93.8175 542.294 95.662 546.16 93.6346 548.86C93.1372 549.522 93.271 550.463 93.9335 550.96Z" fill="black"/>
<circle cx="206.383" cy="867.198" r="43" transform="rotate(-158.734 206.383 867.198)" fill="black"/>
<path fill-rule="evenodd" clip-rule="evenodd" d="M182.483 284.228L165.061 270.848C199.594 221.951 243.369 180.287 293.919 148.21C344.758 115.95 401.454 94.0188 460.769 83.6694C520.084 73.32 580.857 74.7549 639.617 87.8921C698.377 101.029 753.975 125.612 803.235 160.236C852.495 194.859 894.453 238.847 926.714 289.686C958.761 340.19 980.616 396.473 991.048 455.363L970.396 460.681C965.185 462.022 960.841 456.569 963.313 451.79C963.567 451.299 963.375 450.696 962.885 450.442C962.394 450.188 961.791 450.38 961.537 450.871C958.27 457.185 964.01 464.39 970.895 462.617L1014.69 451.341C1020.89 449.744 1022.08 441.457 1016.59 438.173C1016.11 437.89 1015.5 438.044 1015.21 438.518C1014.93 438.993 1015.09 439.607 1015.56 439.89C1019.53 442.263 1018.67 448.25 1014.19 449.404L993.962 454.612C983.445 395.42 961.463 338.848 929.247 288.079C896.775 236.907 854.543 192.632 804.96 157.781C755.378 122.931 699.417 98.1876 640.272 84.9644C581.127 71.7412 519.956 70.2969 460.253 80.714C400.55 91.1312 343.484 113.206 292.312 145.677C241.465 177.942 197.428 219.845 162.68 269.019L147.101 257.055C142.469 253.498 143.747 246.202 149.312 244.431C149.838 244.263 150.129 243.701 149.961 243.174C149.794 242.648 149.231 242.357 148.705 242.525C141.601 244.786 139.97 254.101 145.883 258.641L181.265 285.814C187.078 290.278 195.487 286.139 195.494 278.81C195.495 278.257 195.048 277.809 194.495 277.809C193.943 277.808 193.495 278.255 193.494 278.808C193.488 284.479 186.981 287.682 182.483 284.228Z" fill="black"/>
<circle cx="639.762" cy="86.1537" r="50" transform="rotate(157.012 639.762 86.1537)" fill="black"/>
<path fill-rule="evenodd" clip-rule="evenodd" d="M730.418 724.555C626.37 828.604 457.948 828.972 354.237 725.262C250.527 621.552 250.896 453.13 354.945 349.081C458.993 245.033 627.415 244.664 731.125 348.374C834.836 452.084 834.467 620.506 730.418 724.555ZM359.083 704.291C358.431 707.764 358.016 711.488 358.186 715.014C350.372 706.927 343.199 698.45 336.666 689.646C340.292 690.689 344.254 691.179 348.009 691.361C352.584 691.583 356.931 691.352 360.127 691.068C361.171 690.975 362.095 690.877 362.866 690.785C362.619 691.458 362.337 692.255 362.036 693.153C361.063 696.051 359.885 700.024 359.083 704.291ZM326.186 674.389C328.513 678.057 330.943 681.679 333.476 685.25C334.097 685.552 334.75 685.83 335.432 686.085C339.223 687.502 343.746 688.15 348.154 688.364C352.549 688.578 356.751 688.356 359.862 688.08C361.415 687.942 362.69 687.79 363.574 687.674C364.016 687.616 364.36 687.566 364.592 687.532C364.647 687.524 364.695 687.516 364.738 687.51C364.784 687.503 364.823 687.497 364.854 687.492L364.918 687.482L364.933 687.479L364.936 687.479L364.937 687.479L367.616 687.037L366.563 689.54L366.563 689.541L366.562 689.543L366.556 689.557L366.532 689.614C366.511 689.666 366.479 689.744 366.437 689.848C366.354 690.055 366.231 690.363 366.079 690.76C365.775 691.553 365.352 692.701 364.88 694.107C363.934 696.924 362.8 700.757 362.032 704.845C361.261 708.948 360.874 713.225 361.367 716.963C361.437 717.494 361.525 718.011 361.63 718.512C364.777 721.648 367.985 724.684 371.251 727.621C372.284 727.741 373.373 727.766 374.507 727.706C377.958 727.526 381.671 726.574 385.13 725.351C388.579 724.132 391.711 722.666 393.986 721.501C395.122 720.919 396.039 720.415 396.671 720.058C396.986 719.879 397.23 719.737 397.393 719.641L397.473 719.594C397.516 719.568 397.551 719.548 397.577 719.532L397.621 719.505L397.631 719.499L397.633 719.498L397.634 719.498L400.732 717.608L399.871 721.134L399.871 721.134L399.871 721.137L399.868 721.15L399.854 721.208C399.842 721.259 399.823 721.338 399.8 721.442C399.767 721.583 399.725 721.771 399.676 722.001C399.652 722.11 399.627 722.229 399.6 722.356C399.433 723.151 399.207 724.3 398.974 725.702C398.507 728.51 398.014 732.315 397.902 736.327C397.79 740.352 398.064 744.507 399.084 748.05C399.254 748.639 399.443 749.207 399.652 749.751C403.52 752.347 407.443 754.826 411.418 757.187C412.17 757.12 412.942 757.003 413.73 756.839C417.238 756.114 420.914 754.513 424.295 752.657C427.665 750.806 430.678 748.736 432.854 747.124C433.94 746.319 434.812 745.632 435.412 745.148C435.505 745.072 435.592 745.002 435.672 744.936L435.762 744.862L435.827 744.808C435.934 744.721 436.024 744.646 436.097 744.585C436.174 744.52 436.233 744.471 436.271 744.438L436.313 744.402L436.323 744.394L436.325 744.392L436.325 744.392L439.06 742.03L438.801 745.634L438.801 745.635L438.801 745.637L438.8 745.649L438.797 745.7L438.791 745.79L438.784 745.912C438.773 746.101 438.759 746.381 438.745 746.743C438.716 747.465 438.688 748.509 438.691 749.785C438.697 752.34 438.825 755.804 439.313 759.46C439.803 763.126 440.646 766.924 442.053 770.177C442.557 771.344 443.127 772.423 443.767 773.394C448.075 775.18 452.422 776.842 456.803 778.381C457.263 778.283 457.728 778.168 458.199 778.036C462.034 776.96 466.014 774.827 469.657 772.406C473.288 769.992 476.515 767.339 478.84 765.282C480 764.255 480.931 763.382 481.571 762.766C481.89 762.458 482.136 762.216 482.301 762.051C482.345 762.008 482.383 761.97 482.415 761.937L482.487 761.864L482.533 761.818L482.543 761.808L482.546 761.805L484.629 759.665L485.102 762.614L485.102 762.614L485.102 762.617L485.104 762.629L485.113 762.685L485.126 762.756C485.133 762.799 485.142 762.85 485.152 762.911C485.173 763.027 485.199 763.175 485.233 763.354C485.257 763.484 485.284 763.629 485.315 763.79C485.463 764.553 485.69 765.651 486.006 766.978C486.638 769.638 487.621 773.199 489.022 776.834C490.428 780.48 492.23 784.133 494.477 787.018C494.951 787.627 495.441 788.196 495.946 788.721C500.774 789.594 505.623 790.328 510.487 790.922C510.933 790.685 511.38 790.426 511.826 790.147C515.039 788.142 518.097 785.173 520.77 782.046C523.434 778.929 525.665 775.715 527.233 773.273C528.016 772.054 528.63 771.032 529.047 770.317C529.256 769.96 529.415 769.68 529.521 769.49C529.575 769.395 529.614 769.323 529.641 769.276L529.67 769.223L529.676 769.211L529.678 769.209L529.678 769.208L531.138 766.51L532.37 769.32L532.37 769.32L532.372 769.323L532.377 769.335L532.401 769.39C532.423 769.439 532.457 769.513 532.502 769.611C532.591 769.808 532.726 770.098 532.903 770.468C533.257 771.209 533.78 772.27 534.453 773.538C535.801 776.078 537.738 779.431 540.106 782.711C542.482 786.002 545.243 789.153 548.224 791.348C548.902 791.847 549.583 792.292 550.268 792.675C554.316 792.54 558.362 792.31 562.403 791.984C563.33 791.278 564.22 790.43 565.074 789.463C567.39 786.841 569.33 783.465 570.893 780.073C572.45 776.692 573.604 773.357 574.368 770.862C574.75 769.617 575.033 768.585 575.221 767.868C575.314 767.509 575.384 767.229 575.43 767.041L575.456 766.93L575.48 766.828L575.493 766.777L575.495 766.765L575.496 766.762L575.496 766.762L576.265 763.369L578.204 766.258L578.204 766.258L578.206 766.261L578.213 766.272L578.247 766.321L578.305 766.406C578.327 766.439 578.354 766.477 578.384 766.52C578.447 766.611 578.526 766.725 578.621 766.859L578.703 766.975L578.746 767.035C578.802 767.114 578.862 767.198 578.926 767.287C579.403 767.95 580.101 768.894 580.981 770.016C582.745 772.262 585.227 775.198 588.114 777.985C591.012 780.781 594.259 783.37 597.548 784.981C598.461 785.428 599.365 785.794 600.256 786.069C603.932 785.21 607.593 784.269 611.235 783.246C612.084 782.332 612.857 781.258 613.56 780.053C615.315 777.046 616.552 773.361 617.415 769.727C618.275 766.104 618.748 762.602 619.005 759.999C619.133 758.699 619.207 757.629 619.249 756.886C619.269 756.515 619.282 756.226 619.29 756.032C619.292 755.976 619.294 755.929 619.295 755.889L619.298 755.813L619.299 755.759L619.3 755.747L619.3 755.745L619.3 755.744L619.392 751.843L621.937 754.802L621.937 754.803L621.938 754.804L621.947 754.814L621.983 754.856C622.015 754.893 622.065 754.95 622.132 755.025C622.157 755.053 622.185 755.085 622.215 755.119C622.278 755.189 622.351 755.27 622.434 755.362C622.519 755.456 622.614 755.561 622.719 755.676C623.235 756.237 623.987 757.036 624.93 757.98C626.818 759.871 629.452 762.326 632.453 764.604C635.465 766.891 638.785 768.952 642.044 770.113C643.201 770.525 644.329 770.817 645.421 770.97C648.735 769.506 652.025 767.969 655.288 766.358C655.838 765.48 656.319 764.497 656.735 763.426C658.007 760.153 658.616 756.216 658.842 752.355C659.067 748.509 658.909 744.82 658.692 742.085C658.584 740.72 658.462 739.599 658.367 738.821C658.32 738.432 658.28 738.13 658.251 737.926L658.235 737.808L658.219 737.697L658.21 737.641L658.208 737.628L658.208 737.625L658.208 737.625L657.71 734.407L660.479 736.12L660.479 736.12L660.482 736.121L660.494 736.129L660.546 736.161C660.594 736.19 660.665 736.233 660.761 736.29C660.951 736.404 661.234 736.571 661.6 736.781C662.332 737.202 663.393 737.793 664.702 738.474C667.325 739.836 670.921 741.543 674.838 742.937C678.768 744.336 682.946 745.392 686.752 745.51C688.089 745.552 689.357 745.477 690.542 745.271C693.24 743.347 695.909 741.365 698.548 739.324C699.253 737.838 699.721 736.129 699.991 734.261C700.496 730.778 700.29 726.89 699.767 723.207C699.246 719.534 698.418 716.131 697.719 713.641C697.37 712.398 697.054 711.387 696.826 710.69C696.764 710.501 696.709 710.336 696.662 710.195C696.621 710.075 696.586 709.973 696.558 709.89C696.526 709.799 696.502 709.731 696.486 709.686L696.469 709.636L696.465 709.625L696.464 709.623L696.464 709.623L695.342 706.53L698.412 707.711L698.413 707.711L698.416 707.713L698.43 707.718L698.49 707.741C698.544 707.761 698.627 707.792 698.736 707.832C698.856 707.876 699.008 707.931 699.189 707.996C699.338 708.049 699.508 708.109 699.696 708.174C700.53 708.465 701.738 708.868 703.216 709.313C706.178 710.206 710.206 711.263 714.502 711.935C718.812 712.609 723.309 712.881 727.237 712.259C727.735 712.18 728.22 712.087 728.693 711.98C732.083 708.385 735.351 704.716 738.495 700.979C738.567 700.008 738.562 698.994 738.49 697.946C738.232 694.23 737.129 690.242 735.735 686.535C734.346 682.839 732.693 679.486 731.384 677.052C730.73 675.837 730.165 674.855 729.764 674.18C729.652 673.99 729.553 673.825 729.468 673.686C729.402 673.577 729.345 673.483 729.297 673.407C729.269 673.36 729.244 673.32 729.223 673.286L729.175 673.21L729.145 673.162L729.138 673.151L729.136 673.149L729.136 673.148L727.066 669.904L730.786 670.892L730.786 670.892L730.789 670.893L730.804 670.897L730.866 670.913L730.943 670.933C730.991 670.945 731.049 670.96 731.118 670.977C731.342 671.033 731.675 671.114 732.103 671.213C732.959 671.411 734.194 671.68 735.701 671.962C738.72 672.528 742.809 673.142 747.115 673.346C751.319 673.546 755.652 673.35 759.376 672.384C762.652 667.177 765.723 661.879 768.59 656.501L768.575 656.447C767.469 652.651 765.295 648.713 762.83 645.109C760.373 641.516 757.675 638.325 755.585 636.026C754.542 634.879 753.654 633.958 753.029 633.327C752.716 633.011 752.47 632.767 752.302 632.604C752.219 632.522 752.155 632.461 752.113 632.42L752.066 632.375L752.055 632.365L752.053 632.363L752.052 632.362L749.065 629.532L753.173 629.776H753.173L753.173 629.776L753.177 629.776L753.194 629.777L753.264 629.781C753.3 629.783 753.346 629.785 753.402 629.788L753.551 629.795C753.804 629.806 754.179 629.821 754.66 629.834C755.622 629.86 757.006 629.88 758.681 629.855C762.038 629.805 766.543 629.575 771.169 628.859C775.085 628.253 779.024 627.309 782.411 625.869C784.893 619.234 787.092 612.518 789.006 605.739C786.88 602.438 783.836 599.272 780.61 596.464C777.135 593.44 773.515 590.888 770.757 589.089C769.379 588.19 768.222 587.483 767.411 587.001C767.205 586.879 767.021 586.772 766.862 586.679C766.708 586.589 766.577 586.514 766.471 586.454C766.363 586.392 766.281 586.346 766.227 586.315L766.166 586.282L766.152 586.274L766.149 586.272L766.149 586.272L766.149 586.272L761.671 583.805L766.772 583.462L766.772 583.461L766.775 583.461L766.79 583.46L766.854 583.456C766.912 583.451 766.999 583.445 767.114 583.435C767.26 583.423 767.451 583.406 767.683 583.385C767.816 583.372 767.963 583.358 768.122 583.342C768.997 583.255 770.255 583.113 771.776 582.896C774.822 582.461 778.904 581.727 783.075 580.533C787.259 579.335 791.455 577.695 794.776 575.481C795.098 575.267 795.41 575.048 795.711 574.825C796.641 568.758 797.352 562.665 797.846 556.558C795.345 553.335 791.78 550.347 788.031 547.762C784.129 545.071 780.107 542.87 777.051 541.338C775.525 540.574 774.246 539.979 773.351 539.576C772.903 539.375 772.552 539.222 772.314 539.12C772.195 539.068 772.105 539.03 772.045 539.005L771.978 538.977L771.962 538.97L771.959 538.969L771.958 538.969L771.958 538.969L768.199 537.42L772.063 536.156L772.063 536.156L772.066 536.155L772.08 536.151L772.14 536.131C772.194 536.113 772.276 536.085 772.384 536.048C772.6 535.974 772.919 535.862 773.327 535.714C774.143 535.417 775.314 534.974 776.72 534.395C779.536 533.235 783.278 531.534 787.007 529.365C790.746 527.189 794.406 524.58 797.11 521.624C797.501 521.196 797.871 520.763 798.216 520.326C797.858 514.395 797.295 508.475 796.527 502.577L796.466 502.52C793.381 499.649 789.215 497.238 784.958 495.294C780.715 493.356 776.461 491.917 773.261 490.962C771.663 490.486 770.332 490.131 769.405 489.896C768.941 489.779 768.578 489.691 768.332 489.634C768.266 489.618 768.208 489.605 768.159 489.593C768.118 489.584 768.083 489.576 768.055 489.57L767.986 489.554L767.97 489.551L767.966 489.55L767.966 489.55L767.966 489.55L764.245 488.734L767.523 486.794L767.523 486.794L767.525 486.792L767.536 486.786L767.585 486.756C767.614 486.739 767.653 486.716 767.701 486.686L767.784 486.635C767.96 486.528 768.221 486.366 768.554 486.154C769.219 485.73 770.171 485.107 771.307 484.315C773.583 482.727 776.583 480.472 779.499 477.792C782.424 475.104 785.213 472.036 787.116 468.829C787.821 467.642 788.393 466.454 788.809 465.275C787.545 460.86 786.161 456.472 784.655 452.118C784.167 451.74 783.648 451.376 783.1 451.025C779.654 448.816 775.231 447.239 770.79 446.125C766.365 445.016 762.009 444.388 758.75 444.039C757.124 443.865 755.777 443.76 754.839 443.699C754.371 443.669 754.004 443.649 753.757 443.637C753.634 443.632 753.54 443.628 753.478 443.625L753.409 443.622L753.392 443.622L753.389 443.622L753.389 443.622L753.388 443.622L750.129 443.515L752.331 441.11L752.332 441.109L752.334 441.107L752.344 441.096L752.386 441.049C752.425 441.006 752.483 440.941 752.56 440.855C752.712 440.683 752.938 440.427 753.223 440.094C753.794 439.429 754.604 438.46 755.553 437.253C757.454 434.837 759.901 431.486 762.106 427.729C764.317 423.961 766.245 419.85 767.161 415.905C767.35 415.095 767.494 414.299 767.589 413.52C765.09 408.943 762.44 404.427 759.64 399.979C758.971 399.705 758.269 399.458 757.537 399.238C753.598 398.054 748.977 397.694 744.506 397.764C740.048 397.834 735.819 398.329 732.696 398.809C731.137 399.049 729.86 399.284 728.975 399.458C728.533 399.546 728.189 399.618 727.957 399.667L727.82 399.697L727.695 399.725L727.631 399.739L727.616 399.743L727.613 399.743L727.612 399.743L724.332 400.502L725.962 397.556L725.962 397.556L725.964 397.553L725.971 397.54L726.001 397.486C726.027 397.437 726.068 397.362 726.12 397.263C726.226 397.066 726.381 396.772 726.575 396.392C726.964 395.632 727.51 394.53 728.135 393.171C729.386 390.449 730.942 386.715 732.179 382.646C733.42 378.565 734.317 374.218 734.299 370.251C734.292 368.652 734.137 367.142 733.808 365.748C731.203 362.841 728.52 359.979 725.759 357.165C724.401 356.756 722.917 356.511 721.334 356.409C717.268 356.145 712.724 356.834 708.417 357.907C704.124 358.976 700.145 360.407 697.232 361.574C695.778 362.157 694.595 362.672 693.778 363.04C693.369 363.224 693.053 363.371 692.84 363.471C692.733 363.522 692.653 363.56 692.599 363.586L692.54 363.614L692.527 363.621L692.524 363.622L692.524 363.622L692.523 363.623L689.627 365.042L690.408 361.913L690.408 361.912L690.408 361.912L690.409 361.909L690.413 361.893L690.429 361.827C690.443 361.767 690.465 361.676 690.493 361.557C690.549 361.317 690.63 360.961 690.728 360.503C690.926 359.587 691.193 358.263 691.471 356.642C692.029 353.396 692.626 348.98 692.794 344.277C692.963 339.562 692.698 334.629 691.571 330.32C691.286 329.234 690.95 328.197 690.557 327.219C685.894 323.93 681.145 320.817 676.32 317.878C675.491 317.887 674.643 317.941 673.778 318.034C669.305 318.517 664.544 320.054 660.141 321.928C655.749 323.798 651.78 325.975 648.903 327.688C647.467 328.544 646.308 329.281 645.51 329.803C645.111 330.064 644.803 330.271 644.595 330.412L644.512 330.469C644.479 330.491 644.45 330.511 644.425 330.529C644.401 330.545 644.38 330.559 644.362 330.572L644.305 330.611L644.291 330.621L644.288 330.623L644.288 330.623L644.288 330.623L642.253 332.051L641.939 329.585L641.939 329.585L641.939 329.585L641.938 329.581L641.936 329.563L641.926 329.489C641.917 329.422 641.903 329.321 641.884 329.187C641.846 328.921 641.787 328.527 641.706 328.023C641.544 327.013 641.292 325.564 640.934 323.813C640.218 320.308 639.082 315.616 637.403 310.844C635.72 306.06 633.516 301.268 630.695 297.515C630.121 296.752 629.527 296.038 628.911 295.379C624.204 293.717 619.459 292.199 614.68 290.822C613.061 291.218 611.415 291.846 609.764 292.658C606.052 294.482 602.44 297.173 599.252 299.99C596.071 302.802 593.355 305.7 591.432 307.899C590.472 308.997 589.712 309.917 589.194 310.561C588.936 310.883 588.737 311.135 588.605 311.305C588.539 311.391 588.489 311.455 588.456 311.498L588.42 311.546L588.412 311.557L588.41 311.559L588.41 311.559L586.756 313.756L585.804 311.176L585.804 311.175L585.804 311.175L585.803 311.172L585.797 311.156L585.771 311.087L585.737 310.996C585.717 310.945 585.694 310.883 585.666 310.812C585.572 310.568 585.431 310.208 585.244 309.748C584.871 308.829 584.317 307.513 583.599 305.936C582.159 302.778 580.067 298.596 577.45 294.468C574.825 290.328 571.714 286.311 568.258 283.429C567.535 282.827 566.804 282.279 566.064 281.792C561.347 281.38 556.619 281.099 551.888 280.948C550.468 281.731 549.085 282.748 547.745 283.949C544.746 286.637 542.074 290.149 539.834 293.684C537.598 297.211 535.825 300.71 534.609 303.331C534.002 304.64 533.536 305.726 533.222 306.482C533.066 306.86 532.947 307.156 532.869 307.355L532.825 307.467C532.807 307.513 532.792 307.551 532.781 307.58L532.76 307.635L532.755 307.648L532.754 307.65L532.754 307.651L531.528 310.902L530.003 307.78L530.003 307.78L530.002 307.779L530.001 307.776L529.994 307.762L529.963 307.699C529.935 307.644 529.893 307.559 529.836 307.448C529.724 307.226 529.555 306.898 529.334 306.48C528.892 305.644 528.24 304.45 527.407 303.025C525.74 300.172 523.359 296.416 520.493 292.776C517.618 289.124 514.308 285.656 510.796 283.316C510.629 283.205 510.462 283.096 510.294 282.99C504.353 283.767 498.432 284.752 492.545 285.945C492.276 286.29 492.013 286.649 491.756 287.02C489.423 290.384 487.657 294.635 486.343 298.872C485.032 303.095 484.193 307.231 483.682 310.317C483.427 311.858 483.254 313.132 483.145 314.018C483.091 314.461 483.052 314.807 483.028 315.04C483.016 315.157 483.007 315.245 483.001 315.304L482.995 315.369L482.994 315.384L482.993 315.387L482.993 315.387L482.993 315.387L482.658 319.122L480.325 316.186L480.325 316.186L480.325 316.186L480.323 316.183L480.312 316.171L480.269 316.116L480.235 316.075L480.181 316.008L480.091 315.898C479.933 315.705 479.698 315.421 479.391 315.06C478.778 314.338 477.883 313.31 476.76 312.095C474.51 309.661 471.364 306.494 467.757 303.533C464.14 300.563 460.123 297.853 456.133 296.276C456.085 296.257 456.037 296.238 455.989 296.219C449.833 298.454 443.745 300.931 437.739 303.651C437.706 303.723 437.674 303.795 437.642 303.867C435.927 307.719 434.954 312.354 434.435 316.884C433.917 321.401 433.859 325.736 433.931 328.95C433.967 330.554 434.035 331.873 434.094 332.788C434.124 333.246 434.151 333.602 434.171 333.842C434.181 333.962 434.188 334.054 434.194 334.114L434.2 334.18L434.201 334.196L434.202 334.199L434.202 334.199L434.202 334.2L434.553 337.806L431.756 335.503L431.756 335.503L431.755 335.503L431.753 335.501L431.74 335.49L431.686 335.446C431.638 335.407 431.564 335.348 431.467 335.27C431.273 335.115 430.984 334.887 430.61 334.599C429.863 334.023 428.778 333.209 427.436 332.261C424.747 330.364 421.046 327.947 416.971 325.848C413.074 323.84 408.909 322.16 405.004 321.467C399.809 324.807 394.707 328.353 389.711 332.105C389.686 332.261 389.663 332.417 389.642 332.575C389.11 336.46 389.449 340.861 390.171 345.059C390.89 349.244 391.974 353.15 392.882 356.016C393.335 357.447 393.743 358.613 394.037 359.419C394.183 359.822 394.301 360.135 394.382 360.345C394.422 360.45 394.453 360.53 394.474 360.582L394.497 360.64L394.502 360.654L394.503 360.656L394.503 360.657L395.989 364.361L392.431 362.552L392.431 362.552L392.429 362.551L392.417 362.545L392.366 362.519C392.32 362.497 392.251 362.462 392.158 362.417C391.973 362.326 391.698 362.193 391.343 362.027C390.632 361.694 389.602 361.228 388.333 360.698C385.792 359.636 382.316 358.328 378.552 357.329C374.775 356.327 370.783 355.656 367.189 355.816C364.777 355.924 362.621 356.4 360.833 357.343C359.434 358.76 358.054 360.189 356.695 361.63C355.835 363.407 355.42 365.521 355.361 367.871C355.27 371.474 356.021 375.46 357.101 379.225C358.177 382.978 359.558 386.437 360.673 388.963C361.23 390.224 361.718 391.248 362.066 391.955C362.24 392.308 362.379 392.581 362.473 392.764C362.52 392.856 362.557 392.926 362.58 392.971L362.607 393.021L362.613 393.033L362.614 393.035L362.615 393.036L364.481 396.533L360.767 395.147L360.767 395.147L360.765 395.146L360.754 395.142L360.705 395.125C360.678 395.115 360.642 395.102 360.597 395.086C360.57 395.076 360.539 395.065 360.506 395.053C360.328 394.99 360.064 394.897 359.723 394.782C359.04 394.553 358.052 394.234 356.839 393.882C354.409 393.177 351.097 392.343 347.545 391.818C343.981 391.291 340.25 391.085 336.954 391.59C334.519 391.963 332.412 392.708 330.776 393.923C329.66 395.568 328.566 397.223 327.493 398.887C327.092 400.494 327.057 402.297 327.321 404.248C327.8 407.779 329.24 411.605 331.003 415.188C332.758 418.757 334.793 422.007 336.395 424.371C337.195 425.55 337.883 426.504 338.37 427.161C338.613 427.489 338.806 427.743 338.937 427.914L339.014 428.014L339.085 428.106L339.122 428.153L339.131 428.163L339.132 428.166L339.133 428.166L341.691 431.396L337.655 430.566L337.653 430.566L337.641 430.564L337.592 430.554C337.558 430.547 337.511 430.538 337.451 430.526L337.39 430.515C337.21 430.481 336.942 430.431 336.597 430.372C335.907 430.253 334.91 430.095 333.691 429.938C331.25 429.623 327.943 429.317 324.453 429.343C320.951 429.37 317.34 429.73 314.257 430.708C311.903 431.454 309.95 432.528 308.561 434.008C307.79 435.751 307.041 437.5 306.311 439.256C306.208 440.824 306.473 442.517 307.043 444.303C308.102 447.623 310.16 451.076 312.497 454.247C314.825 457.405 317.375 460.21 319.35 462.231C320.336 463.239 321.175 464.048 321.765 464.603C322.06 464.88 322.293 465.094 322.45 465.237C322.497 465.28 322.537 465.316 322.571 465.346C322.593 465.367 322.613 465.384 322.629 465.398L322.673 465.438L322.683 465.447L322.685 465.449L322.685 465.449L324.954 467.449L321.989 468.044L321.988 468.044L321.985 468.045L321.97 468.048L321.904 468.062C321.846 468.074 321.757 468.093 321.64 468.118C321.407 468.168 321.062 468.245 320.621 468.348C319.739 468.555 318.474 468.867 316.957 469.29C313.917 470.138 309.884 471.421 305.878 473.167C301.856 474.92 297.947 477.103 295.091 479.716C294.176 480.554 293.383 481.421 292.732 482.32C292.108 485.144 291.533 487.977 291.006 490.816C291.501 492.745 292.512 494.675 293.889 496.564C295.824 499.216 298.404 501.68 301.025 503.8C303.639 505.915 306.251 507.654 308.212 508.866C309.192 509.471 310.006 509.943 310.572 510.261C310.855 510.421 311.076 510.542 311.225 510.622C311.299 510.663 311.356 510.693 311.393 510.712L311.433 510.734L311.442 510.738L311.444 510.739L311.444 510.739L314.977 512.581L311.107 513.526L311.106 513.526L311.104 513.527L311.092 513.53L311.04 513.543L310.971 513.561C310.931 513.571 310.882 513.583 310.825 513.598C310.634 513.648 310.351 513.724 309.989 513.825C309.265 514.029 308.225 514.336 306.973 514.748C304.466 515.574 301.132 516.813 297.796 518.474C294.448 520.141 291.17 522.197 288.72 524.628C288.047 525.296 287.444 525.984 286.921 526.693C286.743 530.831 286.663 534.971 286.684 539.111C287.173 539.845 287.742 540.568 288.382 541.279C290.801 543.966 294.116 546.351 297.527 548.348C300.926 550.339 304.35 551.904 306.932 552.974C308.221 553.508 309.295 553.916 310.044 554.19C310.418 554.326 310.711 554.43 310.909 554.498C311.008 554.532 311.083 554.558 311.132 554.575L311.187 554.593L311.2 554.597L311.202 554.598L311.202 554.598L314.499 555.683L311.45 557.341L311.449 557.341L311.447 557.342L311.436 557.348L311.388 557.374C311.345 557.398 311.279 557.435 311.192 557.484C311.019 557.581 310.762 557.728 310.434 557.92C309.778 558.305 308.839 558.872 307.715 559.596C305.463 561.046 302.489 563.114 299.576 565.598C296.655 568.089 293.847 570.953 291.882 573.983C291.005 575.337 290.312 576.697 289.846 578.052C290.409 581.609 291.048 585.156 291.762 588.691C292.504 589.621 293.388 590.51 294.392 591.36C297.264 593.791 300.988 595.787 304.739 597.372C308.479 598.951 312.175 600.092 314.944 600.838C316.326 601.211 317.471 601.484 318.269 601.664C318.667 601.753 318.979 601.819 319.188 601.863C319.246 601.875 319.296 601.885 319.338 601.893L319.425 601.911L319.484 601.922L319.497 601.925L319.5 601.926L319.5 601.926L322.863 602.568L320.111 604.604L320.111 604.605L320.109 604.606L320.099 604.613L320.058 604.644C320.02 604.673 319.963 604.716 319.887 604.773C319.736 604.889 319.513 605.061 319.228 605.287C318.658 605.738 317.844 606.399 316.875 607.234C314.934 608.907 312.388 611.263 309.947 614.009C307.5 616.763 305.202 619.859 303.713 623.009C303.171 624.155 302.744 625.29 302.454 626.405C303.976 630.531 305.608 634.626 307.35 638.684C307.773 638.975 308.218 639.255 308.682 639.524C312.003 641.455 316.181 642.769 320.346 643.652C324.496 644.531 328.549 644.966 331.574 645.18C333.083 645.287 334.331 645.338 335.198 645.363C335.632 645.376 335.97 645.381 336.198 645.384C336.312 645.385 336.398 645.386 336.456 645.386L336.519 645.386L336.534 645.386L336.537 645.386H336.537L339.638 645.374L337.722 647.813L337.72 647.814L337.713 647.824L337.682 647.864C337.665 647.886 337.644 647.914 337.618 647.948C337.598 647.973 337.577 648.001 337.552 648.033C337.503 648.098 337.442 648.178 337.373 648.271C337.328 648.33 337.28 648.395 337.228 648.464C337.175 648.536 337.117 648.614 337.056 648.697C336.628 649.279 336.021 650.128 335.309 651.185C333.882 653.304 332.046 656.247 330.392 659.557C328.735 662.875 327.288 666.51 326.603 670.021C326.308 671.534 326.159 672.998 326.186 674.389ZM395.748 747.078C388.529 742.035 381.514 736.575 374.736 730.698C378.563 730.488 382.551 729.445 386.13 728.18C389.742 726.903 393.002 725.375 395.353 724.171C395.68 724.004 395.99 723.842 396.281 723.689C396.195 724.155 396.105 724.664 396.014 725.209C395.533 728.103 395.02 732.052 394.903 736.243C394.804 739.799 394.988 743.587 395.748 747.078ZM439.366 771.522C431.229 767.968 423.241 763.969 415.438 759.526C418.993 758.638 422.553 757.036 425.739 755.286C429.264 753.35 432.395 751.198 434.64 749.534C435.017 749.255 435.37 748.989 435.696 748.739C435.692 749.07 435.69 749.422 435.691 749.791C435.697 752.432 435.829 756.034 436.34 759.857C436.849 763.671 437.742 767.767 439.299 771.368C439.321 771.419 439.344 771.47 439.366 771.522ZM491.356 787.847C481.344 785.848 471.431 783.244 461.675 780.037C465.034 778.753 468.335 776.887 471.318 774.904C475.1 772.39 478.439 769.643 480.828 767.529C481.528 766.909 482.148 766.343 482.675 765.852C482.792 766.395 482.929 767.006 483.087 767.672C483.74 770.416 484.758 774.115 486.223 777.914C487.533 781.311 489.22 784.841 491.356 787.847ZM545.206 792.794C535.201 792.931 525.192 792.486 515.234 791.457C518.107 789.35 520.756 786.68 523.051 783.995C525.831 780.743 528.143 777.408 529.758 774.893C530.173 774.246 530.543 773.652 530.864 773.125C531.136 773.667 531.45 774.278 531.803 774.944C533.191 777.56 535.2 781.04 537.673 784.466C539.829 787.452 542.373 790.448 545.206 792.794ZM595.272 787.182C585.997 789.155 576.636 790.611 567.235 791.548C567.264 791.515 567.293 791.482 567.322 791.449C569.907 788.523 571.992 784.858 573.617 781.328C575.248 777.788 576.447 774.319 577.237 771.741C577.367 771.315 577.487 770.912 577.596 770.537C577.904 770.945 578.247 771.392 578.621 771.868C580.438 774.182 583.013 777.231 586.031 780.143C588.777 782.793 591.938 785.378 595.272 787.182ZM640.932 772.901C632.741 776.333 624.408 779.322 615.972 781.867C616.033 781.767 616.092 781.666 616.151 781.565C618.113 778.202 619.436 774.202 620.334 770.42C621.235 766.626 621.725 762.982 621.99 760.293C622.022 759.968 622.051 759.657 622.077 759.36C622.306 759.595 622.55 759.843 622.807 760.1C624.756 762.052 627.495 764.607 630.639 766.994C633.743 769.35 637.302 771.59 640.932 772.901ZM685.94 748.477C677.435 754.265 668.662 759.486 659.672 764.141C661.005 760.543 661.61 756.409 661.837 752.53C662.073 748.503 661.906 744.669 661.683 741.848C661.635 741.245 661.585 740.688 661.535 740.184C662.064 740.473 662.661 740.794 663.319 741.136C666.018 742.538 669.745 744.309 673.832 745.763C677.677 747.132 681.909 748.245 685.94 748.477ZM723.347 717.484C716.734 724.097 709.851 730.275 702.733 736.018C702.82 735.579 702.896 735.136 702.96 734.691C703.521 730.818 703.282 726.618 702.737 722.785C702.192 718.942 701.33 715.403 700.607 712.83C700.475 712.36 700.348 711.922 700.227 711.519C700.852 711.724 701.565 711.949 702.351 712.186C705.395 713.103 709.564 714.199 714.038 714.899C717.696 715.47 721.612 715.787 725.309 715.501C724.66 716.164 724.006 716.825 723.347 717.484ZM757.119 675.907C752.314 683.272 747.094 690.446 741.457 697.395C741.13 693.382 739.95 689.222 738.543 685.48C737.093 681.62 735.376 678.141 734.026 675.631C733.978 675.541 733.93 675.453 733.883 675.365C733.807 675.226 733.733 675.089 733.659 674.956C733.588 674.827 733.519 674.7 733.45 674.577C733.969 674.684 734.537 674.797 735.149 674.911C738.252 675.493 742.485 676.13 746.973 676.343C750.295 676.5 753.804 676.428 757.119 675.907ZM780.974 629.621C777.886 637.495 774.394 645.249 770.499 652.85C769.184 649.56 767.301 646.333 765.306 643.415C762.746 639.673 759.952 636.37 757.805 634.008C757.432 633.599 757.079 633.217 756.749 632.866C757.351 632.868 758.013 632.865 758.726 632.855C762.168 632.804 766.821 632.568 771.628 631.824C774.743 631.342 777.961 630.641 780.974 629.621ZM795.064 578.84C793.747 586.613 792.071 594.338 790.035 601.988C787.887 599.159 785.25 596.525 782.58 594.201C778.967 591.057 775.226 588.422 772.395 586.576C772.069 586.363 771.755 586.161 771.454 585.969C771.695 585.937 771.944 585.902 772.2 585.866C775.332 585.419 779.557 584.661 783.901 583.417C787.706 582.327 791.661 580.848 795.064 578.84ZM798.437 524.577C798.84 533.821 798.746 543.085 798.152 552.324C795.68 549.712 792.713 547.346 789.734 545.292C785.681 542.497 781.527 540.226 778.395 538.656C777.707 538.311 777.067 538 776.487 537.723C776.915 537.555 777.375 537.37 777.863 537.169C780.759 535.976 784.633 534.217 788.515 531.958C792.015 529.922 795.576 527.448 798.437 524.577ZM790.046 469.753C792.543 479.124 794.499 488.61 795.913 498.164C792.966 495.956 789.557 494.097 786.204 492.565C781.795 490.551 777.401 489.067 774.118 488.088C773.347 487.858 772.636 487.655 771.998 487.479C772.32 487.262 772.663 487.027 773.023 486.775C775.37 485.138 778.484 482.799 781.529 480.001C784.565 477.21 787.585 473.916 789.696 470.36C789.815 470.159 789.932 469.957 790.046 469.753ZM769.808 417.675C774.872 427.374 779.27 437.332 783.002 447.482C779.508 445.568 775.444 444.199 771.519 443.215C766.916 442.061 762.414 441.415 759.07 441.056C758.127 440.955 757.274 440.877 756.535 440.816C756.947 440.316 757.41 439.744 757.91 439.109C759.865 436.625 762.399 433.158 764.693 429.248C766.791 425.673 768.721 421.673 769.808 417.675ZM737.292 369.719C744.529 378.139 751.126 386.922 757.083 396.002C753.062 394.988 748.622 394.699 744.459 394.764C739.822 394.837 735.448 395.351 732.24 395.844C731.419 395.97 730.672 396.095 730.016 396.212C730.275 395.679 730.559 395.08 730.861 394.424C732.148 391.623 733.761 387.757 735.05 383.519C736.335 379.292 737.319 374.624 737.299 370.237C737.298 370.064 737.296 369.891 737.292 369.719ZM695.792 344.384C695.959 339.719 695.724 334.696 694.62 330.146C704.167 337.165 713.334 344.934 722.04 353.453C721.87 353.439 721.699 353.426 721.527 353.415C717.028 353.124 712.147 353.886 707.692 354.996C703.225 356.108 699.109 357.59 696.116 358.789C695.313 359.111 694.59 359.413 693.961 359.683C694.106 358.95 694.265 358.099 694.428 357.15C695 353.818 695.618 349.262 695.792 344.384ZM634.233 297.324C647.16 302.214 659.766 308.19 671.912 315.254C667.515 315.929 663.031 317.437 658.966 319.168C654.412 321.106 650.319 323.353 647.368 325.111C646.259 325.772 645.308 326.365 644.553 326.849C644.389 325.877 644.165 324.642 643.873 323.213C643.14 319.622 641.971 314.79 640.233 309.848C638.72 305.548 636.755 301.108 634.233 297.324ZM571.543 282.329C584.361 283.725 597.09 286.088 609.612 289.418C609.218 289.592 608.828 289.775 608.441 289.965C604.401 291.95 600.564 294.828 597.266 297.743C593.961 300.663 591.153 303.661 589.174 305.924C588.592 306.589 588.081 307.191 587.649 307.712C587.299 306.874 586.857 305.851 586.328 304.692C584.853 301.455 582.697 297.142 579.983 292.861C577.607 289.113 574.768 285.336 571.543 282.329ZM514.688 282.454C525.345 281.247 536.06 280.708 546.767 280.836C546.42 281.121 546.078 281.414 545.742 281.715C542.462 284.655 539.62 288.417 537.3 292.078C534.974 295.748 533.139 299.37 531.887 302.069C531.631 302.623 531.398 303.138 531.19 303.608C530.846 302.986 530.447 302.281 529.997 301.512C528.287 298.584 525.828 294.703 522.85 290.92C520.46 287.883 517.7 284.866 514.688 282.454ZM460.078 294.774C469.356 291.584 478.778 288.94 488.295 286.843C486.221 290.246 484.655 294.186 483.478 297.983C482.114 302.377 481.248 306.655 480.722 309.827C480.611 310.497 480.515 311.119 480.433 311.683C479.998 311.192 479.506 310.646 478.963 310.059C476.655 307.562 473.407 304.289 469.661 301.214C466.736 298.813 463.469 296.5 460.078 294.774ZM408.573 319.213C416.773 314.13 425.197 309.551 433.798 305.477C432.595 309.016 431.876 312.868 431.455 316.542C430.917 321.237 430.857 325.717 430.931 329.017C430.949 329.791 430.973 330.502 431.001 331.136C430.459 330.735 429.844 330.289 429.166 329.81C426.407 327.863 422.583 325.365 418.345 323.181C415.261 321.592 411.916 320.147 408.573 319.213ZM365.258 352.966C372.058 346.397 379.131 340.276 386.438 334.604C386.235 338.222 386.605 342.025 387.214 345.567C387.963 349.929 389.088 353.974 390.022 356.922C390.184 357.433 390.341 357.912 390.489 358.354C390.174 358.218 389.841 358.076 389.49 357.929C386.869 356.834 383.258 355.474 379.322 354.43C375.398 353.388 371.076 352.64 367.055 352.819C366.452 352.846 365.852 352.894 365.258 352.966ZM334.111 389.122C339.726 381.235 345.839 373.593 352.451 366.239C352.404 366.754 352.375 367.274 352.362 367.795C352.26 371.825 353.096 376.141 354.217 380.052C355.343 383.977 356.778 387.569 357.928 390.175C358.09 390.541 358.246 390.888 358.395 391.214C358.165 391.144 357.924 391.073 357.675 391.001C355.162 390.272 351.711 389.402 347.984 388.85C344.27 388.301 340.208 388.056 336.5 388.624C335.691 388.748 334.892 388.912 334.111 389.122ZM310.948 428.767C314.905 420.334 319.346 412.07 324.271 404.018C324.294 404.229 324.32 404.44 324.348 404.651C324.888 408.636 326.481 412.793 328.31 416.512C330.147 420.246 332.262 423.62 333.912 426.054C334.145 426.398 334.369 426.724 334.583 427.03C334.465 427.014 334.345 426.998 334.222 426.982L334.075 426.963C331.548 426.637 328.098 426.316 324.431 426.344C320.777 426.371 316.832 426.744 313.35 427.848C312.528 428.109 311.723 428.413 310.948 428.767ZM294.052 476.645C296.685 465.883 300.024 455.256 304.068 444.838C304.106 444.963 304.145 445.089 304.185 445.214C305.386 448.979 307.655 452.735 310.082 456.027C312.519 459.333 315.17 462.246 317.205 464.328C317.721 464.855 318.198 465.33 318.623 465.746C317.907 465.925 317.074 466.143 316.151 466.401C313.03 467.271 308.855 468.597 304.679 470.417C300.933 472.049 297.115 474.11 294.052 476.645ZM287.17 521.957C287.701 513.34 288.666 504.744 290.065 496.203C290.492 496.933 290.963 497.643 291.465 498.332C293.609 501.271 296.404 503.92 299.138 506.132C301.879 508.35 304.602 510.162 306.636 511.419C306.739 511.482 306.841 511.545 306.941 511.606C306.855 511.633 306.768 511.661 306.68 511.689C306.6 511.715 306.52 511.741 306.438 511.767C306.306 511.81 306.172 511.853 306.035 511.898C303.441 512.753 299.963 514.044 296.459 515.789C293.198 517.412 289.852 519.458 287.17 521.957ZM289.071 572.815C287.755 563.233 286.983 553.588 286.753 543.932C289.382 546.664 292.725 549.013 296.011 550.937C299.565 553.018 303.122 554.643 305.784 555.745C306.31 555.963 306.802 556.161 307.252 556.338C306.892 556.562 306.503 556.808 306.09 557.074C303.766 558.57 300.675 560.719 297.63 563.315C294.593 565.904 291.549 568.983 289.365 572.351C289.265 572.505 289.167 572.659 289.071 572.815ZM300.874 621.998C297.674 612.803 295.015 603.459 292.897 594.017C296.018 596.549 299.858 598.567 303.572 600.135C307.476 601.784 311.311 602.966 314.163 603.735C314.771 603.899 315.335 604.044 315.847 604.172C315.556 604.415 315.245 604.679 314.917 604.962C312.91 606.691 310.261 609.141 307.705 612.016C305.157 614.882 302.658 618.22 301.001 621.727C300.958 621.817 300.916 621.907 300.874 621.998ZM323.536 670.119C318.245 661.401 313.524 652.433 309.372 643.268C312.598 644.789 316.23 645.846 319.724 646.586C324.052 647.504 328.252 647.952 331.362 648.173C332.209 648.233 332.976 648.276 333.646 648.307C333.391 648.671 333.114 649.074 332.82 649.51C331.346 651.699 329.436 654.757 327.709 658.216C325.985 661.668 324.415 665.572 323.659 669.446C323.615 669.67 323.574 669.894 323.536 670.119Z" fill="black"/>
<path d="M345.105 497.58C345.643 498.656 346.718 499.194 347.524 500.002C348.062 500.809 348.599 501.885 349.137 502.962C349.675 504.038 350.75 504.845 350.75 505.922C350.75 506.729 349.406 507.267 349.137 508.074C349.137 508.612 349.137 509.151 349.406 509.958L350.212 510.765C351.287 510.765 351.556 509.689 352.362 509.151H353.706C354.244 509.42 354.244 510.496 354.782 510.496C355.05 510.765 355.588 509.689 356.125 509.958C356.663 509.958 357.201 510.227 357.469 510.765C358.276 511.841 358.007 513.187 358.813 514.263C359.351 515.07 360.426 515.34 361.501 515.609C362.308 515.609 363.383 515.34 363.92 514.801C364.727 513.994 364.727 512.918 365.264 512.38C365.802 511.841 366.608 512.111 367.146 511.841C367.683 511.572 368.221 511.034 369.027 510.765C369.296 510.496 370.103 509.689 370.371 509.958C371.178 511.034 370.909 512.38 370.909 513.456C371.178 516.685 370.103 520.183 371.178 523.143C371.447 524.219 373.059 523.95 374.134 523.681C375.21 523.412 376.016 522.336 377.091 522.336C378.435 522.067 379.779 522.336 380.854 522.336C382.467 522.605 384.348 522.605 385.961 522.605C387.843 522.874 389.724 523.143 391.606 522.605C392.412 522.605 393.219 521.529 393.487 520.721C394.025 520.183 393.487 519.107 394.025 518.569C394.294 518.3 395.369 518.3 395.906 518.3C396.444 518.3 396.713 519.107 396.982 518.838C398.057 518.569 398.863 517.761 399.401 517.223C400.207 516.416 400.476 515.07 401.282 514.532C401.82 514.263 402.357 515.34 402.626 515.07C403.433 514.532 403.701 513.456 404.239 512.649C405.045 511.841 406.12 511.034 406.927 510.765C408.271 510.227 409.884 509.958 411.227 509.689C412.034 509.689 412.571 509.42 413.378 509.42C414.184 509.42 414.991 509.689 415.797 509.689C416.334 509.689 416.872 509.151 417.41 509.151C417.678 508.881 418.216 508.343 418.485 508.881C419.291 509.689 419.56 511.303 419.56 512.38C419.56 513.456 418.485 513.994 418.485 514.801C418.216 515.878 418.485 516.954 418.754 517.761C419.022 518.569 419.829 518.838 420.098 519.645C420.366 520.452 420.366 521.259 420.098 522.067C419.829 522.605 418.754 522.336 418.754 522.874C418.754 523.95 419.291 524.758 419.56 525.565C420.098 526.641 420.098 527.718 420.904 528.794C421.71 530.139 422.785 531.485 424.129 532.292C425.205 533.099 426.548 533.099 427.624 533.637C428.161 534.176 427.892 535.521 428.699 536.059C429.505 536.597 430.58 536.597 431.387 536.328C432.462 536.328 433.268 536.059 434.075 535.79C434.343 535.79 434.612 535.252 435.15 535.252C436.225 535.521 437.569 536.328 438.644 536.867C439.45 537.405 439.719 538.481 440.526 539.019C441.332 539.288 442.138 538.75 442.676 539.288C443.751 539.557 444.289 540.903 445.364 541.172C446.17 541.71 447.245 541.979 448.052 541.979C448.589 542.248 449.396 541.71 449.933 542.248C451.008 543.056 451.546 544.67 452.89 545.477C453.696 546.015 455.04 546.285 456.384 546.015C456.922 545.746 456.922 544.401 457.728 544.401C458.803 544.132 459.61 544.939 460.685 545.208C461.491 545.746 462.298 546.285 463.104 546.823C464.179 547.361 465.792 547.63 466.329 548.706C466.867 549.514 465.792 550.859 466.061 551.935C466.329 553.281 467.405 554.357 467.942 555.703C468.211 556.51 467.942 557.855 467.942 558.932C467.942 559.201 468.211 559.47 467.942 559.739C467.136 560.008 466.329 559.47 465.792 559.739C465.523 560.008 465.792 560.815 466.061 561.084C466.329 561.623 467.136 561.892 467.405 562.699C467.942 563.775 468.211 565.121 468.211 566.466C468.48 567.542 468.211 568.619 468.48 569.426C468.749 570.502 469.555 571.579 470.361 571.848C472.512 572.386 474.931 571.848 477.35 571.848C479.5 572.117 481.65 572.117 483.801 572.117C484.338 572.386 485.682 571.579 485.682 572.386C485.951 573.193 484.338 573.731 484.07 574.808C484.07 575.615 484.876 576.153 485.145 576.691C485.682 577.768 485.682 579.113 486.22 579.92C486.757 580.728 487.564 580.997 488.37 581.535C489.177 582.342 489.714 583.149 490.521 583.957C491.327 584.764 492.133 585.84 492.671 586.917C493.208 587.993 493.208 589.069 493.208 590.415C493.208 591.491 492.94 592.568 492.402 593.644C492.133 594.989 491.327 596.335 490.789 597.68C490.521 599.295 489.983 600.64 489.445 601.986C489.177 602.793 488.37 603.869 488.639 604.676C488.908 605.484 489.983 605.484 490.521 605.753C490.789 606.291 491.058 606.829 490.789 607.098C490.521 607.636 489.714 607.098 489.177 607.636C488.639 608.175 488.37 609.251 488.639 610.058C488.639 611.135 489.445 611.942 489.714 613.018C489.983 613.556 490.252 614.095 490.521 614.902C490.789 615.44 491.327 615.978 491.327 616.785C491.596 617.862 491.596 618.938 491.327 620.284C491.327 620.822 491.058 621.36 490.789 622.167C490.789 622.705 491.058 623.513 491.058 624.051C491.058 624.858 490.521 625.665 490.521 626.473C490.521 627.28 490.521 628.356 491.327 628.894C492.133 629.163 492.94 628.087 493.746 628.087C494.552 628.087 495.628 628.356 496.703 628.356C497.509 628.625 498.584 628.356 499.391 628.625C500.197 628.625 500.735 629.163 501.272 629.163C501.81 629.432 502.616 629.702 503.154 629.702C503.691 629.432 503.691 627.818 504.498 628.087C505.304 628.087 505.304 629.432 506.11 629.971C507.185 630.509 508.798 629.971 509.873 630.509C510.68 631.316 511.217 632.931 511.486 634.007C512.292 636.16 512.292 638.043 512.83 640.196C513.099 641.272 513.099 642.887 514.174 643.694C514.712 644.232 516.056 644.232 517.131 644.501C518.475 644.501 519.819 643.963 520.894 644.232C521.969 644.501 523.582 645.039 523.85 646.116C524.388 647.461 522.775 648.807 522.775 650.152C522.775 651.229 523.582 652.036 523.313 653.112C523.313 653.919 522.507 654.727 522.507 655.803C522.238 656.341 523.313 656.61 523.044 657.148C522.775 657.687 521.969 657.418 521.7 657.956C521.431 658.494 521.431 659.301 521.7 660.108C521.7 660.916 521.7 661.723 522.507 661.992C523.582 662.261 525.194 660.916 526.27 661.454C527.614 662.261 528.151 664.145 528.689 665.49C529.226 666.297 529.495 667.374 529.495 668.181C529.226 668.719 528.42 668.988 528.42 669.526C528.151 670.334 528.689 671.141 528.689 672.217C528.689 673.025 528.42 673.832 528.151 674.639C527.614 675.715 527.345 676.523 526.538 677.33C526.001 677.868 525.463 678.137 524.657 678.406C523.85 678.675 522.775 678.406 521.7 678.675C520.625 679.214 519.819 680.29 519.012 680.828C518.206 681.366 517.668 682.174 516.862 682.712C515.787 683.519 514.443 684.057 513.099 684.864C512.561 685.403 512.292 686.21 511.486 687.017C510.949 687.824 510.142 688.632 509.605 689.439C509.067 689.977 508.798 690.515 508.261 691.053C507.454 691.861 506.648 692.13 505.842 692.668C505.304 693.475 505.035 694.552 504.498 695.09C503.96 695.897 503.154 696.166 502.616 696.973C502.078 697.781 502.078 699.126 501.272 699.933C500.466 700.741 499.122 700.471 498.584 701.279C497.778 701.817 497.778 702.893 497.509 703.7C497.24 704.239 496.703 705.046 497.24 705.315C497.778 705.853 498.584 704.777 499.122 705.046C499.659 705.046 499.928 705.853 500.197 705.853C500.735 705.853 501.003 705.315 501.272 705.046C501.541 704.777 501.541 704.239 501.81 703.97C502.347 703.7 503.154 703.431 503.691 703.431C504.229 703.431 504.229 704.239 504.766 704.508C505.035 704.777 505.573 704.777 505.842 705.046C506.379 705.584 506.11 706.391 506.648 706.93C507.185 707.468 508.261 707.468 508.529 707.737C509.067 708.275 509.067 709.082 509.336 709.62C509.605 710.428 509.873 711.235 510.142 711.504C510.411 711.773 510.949 711.773 511.486 711.504C511.755 711.504 512.292 711.235 512.83 710.966C513.099 710.697 513.368 710.697 513.368 710.428C513.636 710.159 513.368 709.62 513.368 709.351C513.636 709.082 513.905 709.082 514.174 709.082C514.712 709.082 515.787 709.082 515.787 709.62C516.056 710.159 514.98 710.697 514.712 711.235C514.712 711.773 514.98 712.311 515.249 712.58C516.056 713.657 517.131 714.733 518.475 715.271C519.281 715.809 520.625 715.809 521.431 716.348C522.238 716.886 523.044 717.693 523.582 718.231C524.119 719.038 524.388 719.846 525.194 720.384C526.001 721.191 527.345 721.191 528.151 722.267C529.226 723.075 529.226 724.689 530.033 725.766C532.183 728.726 535.14 727.111 532.989 730.609C532.989 730.878 532.452 731.147 532.183 731.416C531.645 731.686 531.377 731.686 531.108 731.955C530.839 732.493 530.57 732.762 530.57 733.3C530.57 733.838 530.301 734.645 530.57 735.453C530.57 735.991 531.108 736.529 531.377 736.798C531.914 737.067 532.183 737.067 532.721 736.798C532.989 736.798 533.258 736.26 533.527 735.991C534.333 735.722 535.14 735.453 535.677 735.184C536.484 734.645 537.559 734.107 538.096 733.3C538.634 732.762 538.634 731.955 538.634 731.147C538.903 730.609 538.903 730.071 538.903 729.533C539.171 728.995 539.44 728.456 539.44 727.918C539.978 726.842 540.784 725.766 540.784 724.689C541.053 724.151 540.247 723.613 540.247 722.806C540.247 722.267 540.784 721.998 540.784 721.729C541.053 720.922 541.053 720.115 541.591 719.308C542.128 718.231 543.203 716.886 544.01 715.809C544.547 715.271 545.354 715.271 545.622 715.002C546.16 714.733 546.429 714.464 546.698 713.926C546.966 713.388 546.698 712.58 546.966 711.773C547.235 710.966 548.042 710.428 548.31 709.62C548.579 709.082 549.117 708.813 549.117 708.006C549.117 707.737 548.579 707.468 548.579 707.199C548.042 706.66 547.773 706.122 547.504 705.315C547.504 705.046 547.235 704.777 547.504 704.508C548.31 704.508 549.117 704.508 549.654 705.046C550.461 705.853 550.192 706.93 550.729 707.737C551.267 708.275 551.805 708.544 552.073 708.544C552.611 708.544 552.342 708.006 552.342 707.737C552.611 707.468 552.342 706.66 552.611 706.93C553.149 706.93 553.149 707.737 553.686 708.006C553.955 708.006 554.224 707.199 554.493 707.468C554.761 707.737 554.761 708.275 554.493 708.813C554.224 709.082 553.149 708.813 552.88 709.351C552.611 709.62 553.149 710.428 552.88 710.966C552.611 711.504 552.073 711.773 551.536 712.58C551.267 712.849 551.536 713.388 550.998 713.657C550.192 714.195 548.848 713.657 548.31 714.464C547.773 715.271 548.848 716.617 548.579 717.424C548.31 717.962 547.235 717.693 546.698 717.962C546.16 718.231 545.891 718.769 545.622 719.038C544.816 719.846 543.472 720.384 542.666 721.191C542.397 721.729 542.397 722.537 542.666 723.075C543.203 723.613 544.279 723.882 544.816 723.344C545.354 723.344 545.354 722.268 545.891 721.729C546.429 721.191 547.235 720.653 547.773 720.115C548.848 719.577 549.654 719.038 550.461 718.231C551.267 717.693 551.536 716.886 552.073 716.348C552.88 715.54 553.686 715.54 554.224 715.002C555.03 713.926 555.568 712.849 556.105 711.504C556.643 710.966 557.18 710.159 557.18 709.351C557.718 708.275 557.718 707.199 557.987 706.122C557.987 705.853 557.718 705.315 557.987 705.046C558.256 704.508 559.062 704.508 559.331 703.97C559.6 703.7 559.6 703.162 559.868 702.893C560.406 702.086 561.212 702.086 561.481 701.279C561.75 700.741 560.943 699.933 560.943 699.395C560.943 699.126 560.943 698.588 561.212 698.588C561.75 698.588 562.287 699.126 563.094 699.126C563.631 698.857 563.9 698.05 564.169 697.781C564.707 696.973 565.244 696.435 565.782 695.897C566.857 695.359 567.932 695.359 569.007 694.821C569.545 694.282 570.082 693.475 570.62 692.668C570.889 692.13 571.426 691.592 571.695 691.053C571.964 689.977 571.695 688.901 571.964 688.093C572.233 686.748 573.039 685.672 573.039 684.326C573.308 683.519 572.501 683.25 572.501 682.443C572.77 681.635 573.845 680.828 573.845 679.752C573.845 679.214 573.039 678.675 573.039 678.137C572.77 677.061 572.77 675.985 572.77 674.908C572.77 673.832 572.77 673.025 573.039 671.948C573.039 670.603 573.308 669.526 573.845 668.181C574.114 667.374 575.458 667.105 575.458 666.028C575.458 665.49 574.383 665.221 573.845 664.683V663.876C574.114 663.606 574.383 663.337 574.652 663.068C575.727 663.068 576.802 664.952 577.877 664.683C579.49 664.414 579.221 661.992 580.028 660.916C581.103 659.839 582.178 659.301 583.522 658.494C584.866 657.418 586.479 656.61 588.091 655.534C588.898 654.996 589.704 654.188 590.51 653.65C591.048 653.112 591.586 652.574 592.392 652.305C593.198 651.767 594.273 651.498 595.349 650.959C596.155 650.421 596.961 649.345 598.037 649.345C599.112 649.076 600.456 649.883 601.531 649.883C602.606 649.883 603.95 649.883 604.756 649.345C605.831 648.807 606.1 647.461 606.907 646.923C607.713 646.116 609.057 646.116 609.863 645.309C610.401 644.77 610.132 643.963 610.67 643.156C610.938 642.618 611.207 642.08 611.745 641.81C612.551 641.81 613.358 642.349 614.164 642.618C614.702 642.618 615.508 643.156 616.314 643.156C616.852 643.156 617.389 642.08 618.196 641.81C618.733 641.81 619.54 641.81 620.077 642.08C620.615 642.349 620.615 643.156 621.152 643.694C621.421 643.963 621.959 644.232 622.496 644.232C623.84 643.963 625.453 643.963 626.528 643.156C627.066 642.887 626.797 641.81 627.335 641.541C627.872 641.541 628.141 642.618 628.679 642.887C629.485 643.156 630.829 643.156 631.635 643.425C632.442 643.694 632.71 644.77 633.248 644.501C634.592 644.232 635.936 643.425 636.742 642.349C637.28 641.541 636.742 640.196 637.28 639.658C637.817 638.851 638.893 638.851 639.43 638.312C641.312 637.505 643.193 636.967 644.537 635.621C645.075 635.352 644.806 634.545 644.806 634.007C644.806 633.469 644 633.469 644 633.2C644 632.662 644.537 631.854 645.075 631.854C645.612 631.854 646.15 633.2 646.419 632.661C646.956 632.123 646.15 631.047 646.419 629.971C646.419 629.702 646.688 629.163 646.956 628.625C647.763 627.549 648.569 626.472 649.644 625.396C650.451 624.32 651.795 623.243 652.601 622.167C652.87 621.629 652.87 620.822 653.407 620.284C654.482 618.938 655.826 617.324 656.902 615.978C658.246 614.633 659.589 613.556 660.396 612.211C661.202 610.865 661.202 609.251 661.471 607.636C661.74 606.56 661.471 605.215 661.74 603.869C662.009 602.524 662.277 601.178 663.084 600.102C663.621 598.487 664.696 597.142 665.503 595.797C666.309 594.989 667.384 594.182 667.653 593.106C668.191 592.029 667.653 590.684 667.922 589.608C668.191 587.186 668.997 585.033 669.803 583.149C670.341 581.266 671.416 579.651 671.954 578.037C672.223 577.499 672.76 576.96 672.76 576.422C672.76 575.346 672.223 574.539 672.223 573.462C672.223 572.655 673.029 571.848 673.029 571.041C672.76 569.695 671.685 568.619 671.685 567.273C671.685 566.197 672.223 564.852 672.76 563.775C673.029 561.892 674.104 560.277 674.104 558.663C674.104 557.048 672.491 555.972 672.491 554.357C672.491 553.012 673.567 551.666 674.104 550.321C674.373 549.514 674.373 548.706 674.642 548.168C675.179 547.63 676.254 547.361 676.254 546.823C676.254 546.015 675.179 545.477 675.179 544.67C675.179 544.132 675.986 543.325 676.523 543.594C677.598 544.132 677.061 546.015 678.136 546.554C678.942 547.092 680.286 546.285 681.093 545.746C681.899 545.208 682.437 544.132 683.243 543.594C684.587 542.248 686.2 541.71 687.275 540.365C688.35 539.288 688.888 537.674 689.694 536.328V536.059C689.694 535.252 689.963 534.176 690.232 533.368C690.5 532.561 691.307 531.754 691.575 530.678C691.844 530.139 691.307 529.601 691.575 529.332C692.113 529.063 692.651 530.139 692.919 529.87C693.726 529.332 693.726 527.987 694.263 527.179C695.07 526.372 696.145 525.565 697.22 524.758C698.833 523.143 700.446 521.529 702.327 520.183C703.133 519.645 703.94 519.107 704.746 518.3C705.284 517.761 705.015 516.685 705.553 516.147C706.09 515.878 706.897 516.147 707.434 515.878C707.972 515.34 708.509 514.801 708.778 513.994C709.047 513.725 708.509 512.918 708.778 512.38C709.853 511.034 711.466 510.227 712.541 508.881C713.616 507.805 714.691 506.46 715.229 505.114C716.304 503.5 716.573 501.885 717.379 500.002C718.186 498.118 719.261 496.234 719.798 494.082C720.067 491.929 720.067 489.776 719.798 487.893C719.798 485.202 719.798 482.78 719.53 480.089C719.261 478.744 718.992 477.129 718.723 475.515C718.454 474.438 718.454 473.362 718.186 472.017C717.379 469.864 716.573 467.711 715.498 465.828C714.96 465.02 714.154 464.482 713.347 464.213C711.197 463.406 709.047 463.137 706.896 462.868C705.284 462.599 703.671 463.406 702.058 463.137C700.177 462.599 698.564 461.253 696.951 460.446C695.07 459.1 693.726 457.755 692.113 456.679C690.232 455.333 688.619 453.988 687.006 452.373C685.393 451.028 684.049 449.413 682.437 447.799C681.093 446.722 679.749 445.377 678.136 444.57C676.523 443.493 674.373 443.493 672.491 442.686C671.416 441.879 670.341 440.802 668.997 440.264C667.384 439.726 665.772 439.726 664.159 439.457C662.546 439.457 660.665 439.726 659.052 439.995C657.977 440.264 656.902 441.341 655.558 441.341C654.214 441.072 653.138 439.726 651.795 439.188C650.988 438.919 649.913 438.381 648.838 438.381C647.763 438.112 646.419 438.919 645.344 438.65C644.806 438.381 644.537 437.304 644 437.304C642.924 436.766 641.581 437.304 640.505 437.035C639.968 436.766 639.968 435.69 639.43 435.421C638.086 434.883 636.473 434.883 635.13 434.344C634.861 434.344 634.592 433.537 634.054 433.537C633.517 433.806 633.786 435.152 633.248 435.421C632.442 435.69 631.635 435.152 631.098 434.613C630.56 434.344 630.829 432.999 630.291 433.268C629.485 433.806 629.754 435.152 629.216 435.959C628.679 436.228 628.141 436.228 627.603 435.959C627.066 435.959 626.528 435.421 626.259 435.152C625.722 434.883 625.184 434.613 624.647 434.883C624.109 435.69 624.109 437.035 623.84 438.112C623.303 438.919 623.034 439.726 622.228 440.533C621.69 441.072 620.615 441.341 620.077 442.148C619.54 443.224 619.809 446.722 619.271 445.646C618.733 444.301 619.271 442.686 619.809 441.341C619.809 440.802 620.346 439.995 620.615 439.188C620.884 438.65 620.615 438.112 620.884 437.573C621.152 436.766 621.69 435.959 622.228 435.152C622.496 434.613 623.034 434.075 623.572 433.537C623.84 433.268 624.647 432.999 624.647 432.73C624.378 432.192 623.84 431.653 623.303 431.653C622.765 431.923 622.228 433.268 621.69 432.73C621.152 432.461 621.959 431.653 622.228 431.115C622.496 430.577 623.303 430.308 623.303 429.77C623.303 428.963 622.765 428.424 622.228 427.886C621.959 427.617 621.152 427.886 620.884 427.617C620.346 426.81 620.077 425.734 619.54 425.195C619.271 424.926 618.733 425.195 618.465 424.926C617.927 424.926 617.658 424.119 617.121 424.388C616.314 424.388 615.777 424.926 615.508 425.734C615.239 426.541 616.583 427.886 615.777 428.155C614.701 428.424 614.164 426.81 613.895 426.003C613.626 425.195 614.97 424.657 614.97 423.85C614.701 423.312 614.164 423.043 613.358 423.043C613.089 422.774 613.089 423.581 612.82 423.581C612.282 423.312 612.82 422.235 612.282 422.235C611.476 421.966 610.67 422.774 609.863 422.774C609.057 422.774 608.251 421.697 607.444 421.697C607.175 421.697 606.907 422.774 606.638 422.505C606.1 421.966 606.638 420.621 606.1 420.352C605.294 420.083 604.487 421.697 603.681 421.428C602.875 421.159 602.875 419.275 601.8 418.737C600.456 417.93 599.112 417.93 597.499 417.661C596.155 417.123 594.811 416.316 593.467 416.046C592.93 416.046 594.273 417.392 593.736 417.123C592.661 417.123 591.586 415.777 590.51 415.508C589.704 415.508 589.435 416.585 589.166 416.585C588.36 417.123 587.554 416.854 587.016 417.392C586.21 417.661 585.941 418.468 585.403 419.006C584.597 419.814 583.791 420.621 582.984 421.428C582.447 421.966 581.372 422.505 581.372 423.043C581.372 424.388 583.791 425.195 582.984 426.003C582.447 426.81 581.103 424.926 580.296 424.926C579.221 425.195 578.684 426.541 577.877 427.079C577.34 427.348 577.071 427.079 576.802 427.079C575.727 427.079 574.652 426.81 573.577 427.348C572.501 427.617 571.695 428.963 570.62 429.501C569.814 429.77 569.007 429.501 568.201 429.501C567.126 429.501 566.051 428.694 564.975 428.963C564.169 429.501 564.438 431.653 563.363 431.384C561.75 431.384 561.481 428.694 560.137 428.424C559.331 428.155 559.331 430.308 558.524 430.577C557.718 430.846 557.18 429.77 557.18 428.963C557.449 428.155 559.062 428.155 559.6 427.079C559.868 426.272 559.868 424.926 559.6 424.119C559.331 423.312 559.062 422.235 558.256 422.235C556.105 422.235 554.224 423.581 552.073 424.388C550.192 424.926 548.042 426.003 546.16 426.272C544.816 426.541 543.472 427.079 542.397 426.272C541.859 426.003 543.203 424.926 543.741 424.657C545.085 424.119 546.966 424.926 548.31 424.119C549.386 423.043 549.386 421.428 549.923 419.814C549.923 419.545 549.923 419.006 550.192 418.737C551.267 416.854 552.342 414.701 553.686 413.086C555.299 410.934 556.912 409.319 558.793 407.436C559.6 406.628 560.943 406.09 561.75 405.014C563.363 403.668 564.438 402.054 565.513 400.439C566.588 399.094 567.932 397.479 568.201 395.596C568.201 394.519 567.394 393.443 566.588 392.905C564.975 392.098 563.094 393.174 561.75 392.367C560.675 391.829 560.406 390.483 560.137 389.407C559.868 388.869 560.406 388.33 560.406 387.523C560.137 386.447 559.6 385.371 559.062 384.294C558.256 382.68 557.449 381.334 556.912 379.451C556.643 377.836 556.643 376.222 556.374 374.607C556.105 373.531 556.374 372.185 555.836 371.109C555.03 369.494 553.955 367.073 552.073 366.804C550.998 366.804 553.417 369.494 552.88 370.571C552.342 371.378 551.536 368.687 550.729 368.956C548.848 370.302 547.773 372.723 546.429 374.607C545.085 377.029 543.741 379.451 542.397 381.872C541.859 383.218 541.322 384.294 540.784 385.371C540.247 386.447 540.247 387.792 539.44 388.33C538.365 389.138 536.752 389.676 535.408 389.407C534.064 389.138 533.796 387.523 532.721 387.254C532.183 386.985 531.645 388.061 531.108 388.061C530.57 388.061 530.033 386.985 529.495 386.985C527.882 387.254 527.076 389.138 525.732 389.138C524.388 389.407 523.582 388.061 522.238 387.523C521.969 387.523 521.431 388.33 521.163 388.061C519.819 387.254 519.012 384.832 517.4 384.832C515.249 384.563 513.099 386.985 510.949 387.254C509.873 387.254 509.067 385.371 508.261 385.64C506.917 385.909 505.842 386.985 505.573 388.33C505.573 389.676 507.454 390.752 507.454 392.098C507.454 392.636 506.379 393.174 505.842 392.905C504.498 392.367 503.691 390.483 502.347 390.214C501.81 389.945 502.885 391.56 502.347 392.098C501.81 392.636 500.466 393.174 499.391 393.174C498.584 393.174 497.778 392.098 496.703 392.098C495.359 391.829 493.477 391.56 492.133 392.367C491.596 392.636 492.94 393.981 492.133 394.25C490.789 395.058 488.639 394.25 487.026 394.789C486.489 394.789 487.564 395.865 487.026 396.134C486.22 396.403 485.413 395.327 484.876 395.596C483.263 396.403 482.994 398.556 481.382 399.094C480.306 399.632 478.694 398.825 477.619 398.287C476.006 397.479 474.393 396.403 473.318 395.058C472.512 394.25 472.243 393.174 471.974 392.098C471.974 391.021 473.049 389.945 472.78 388.869C472.512 388.061 470.899 387.792 470.63 386.985C470.092 385.64 469.824 383.756 469.824 382.411C470.092 381.603 471.168 381.334 471.436 380.796C471.974 379.989 471.168 379.182 471.705 378.374C472.512 377.298 474.393 377.298 474.662 376.222C475.199 374.607 474.124 373.262 473.856 371.647C473.587 370.571 473.049 369.494 472.78 368.687C472.243 368.149 471.974 367.342 471.436 367.073C470.899 366.804 469.824 367.342 469.286 366.804C468.211 365.727 467.673 364.382 467.673 363.036C467.405 361.96 468.749 361.153 468.48 360.076C468.211 359.538 467.136 359 466.329 359C465.523 359.269 465.254 360.345 464.448 360.884C463.91 361.153 463.373 361.153 462.835 360.884C462.029 360.615 461.491 359 461.222 359.538C460.685 360.345 462.029 361.153 462.029 361.96C462.298 362.767 462.298 363.574 461.76 364.113C460.954 365.189 459.878 365.996 458.535 366.534C457.191 367.342 455.309 367.342 453.965 368.149C453.159 368.687 453.159 370.033 452.352 370.571C451.277 371.109 449.664 371.109 448.589 371.378C446.977 371.647 445.633 370.84 444.289 371.378C442.945 371.916 441.87 372.723 441.063 373.8C440.794 374.607 441.601 375.414 441.332 376.222C441.063 376.76 440.257 376.491 439.988 376.222C439.182 375.683 438.913 374.338 438.106 374.069C437.3 373.531 436.225 374.069 435.419 373.8C433.806 373.531 432.193 372.993 430.849 372.185C429.774 371.647 429.505 369.494 428.161 369.494C426.817 369.494 425.473 371.109 424.667 372.454C424.129 373.262 424.398 374.876 425.205 375.414C426.28 376.222 428.161 374.876 429.236 375.952C430.043 376.491 429.774 377.836 429.505 378.912C429.236 379.72 428.699 380.258 428.161 381.065C427.892 381.872 427.355 382.68 427.355 383.756C427.355 385.101 427.624 386.178 427.892 387.523C428.161 388.33 428.43 388.869 428.968 389.407C429.236 389.945 430.043 389.945 430.58 389.945C431.118 390.214 431.924 391.021 432.731 390.752C433.268 390.752 433.806 389.676 434.343 389.676C435.419 389.945 436.763 391.29 435.956 391.829C434.612 393.174 432.193 391.829 430.849 393.174C428.968 394.519 429.505 398.018 427.624 399.363C426.817 400.17 426.817 397.21 425.742 397.21C424.667 397.21 424.398 399.094 423.592 399.901C421.71 401.516 419.829 402.592 418.216 403.938C417.41 404.745 417.141 406.897 416.066 406.628C414.722 406.628 415.528 404.207 414.453 403.399C413.647 402.861 412.571 402.592 411.765 403.399C410.959 404.207 411.765 406.897 410.421 406.897C408.54 407.167 407.464 405.014 405.852 403.938C404.508 403.13 402.895 402.592 402.089 401.247C401.551 400.708 402.357 399.632 402.089 398.825C401.013 396.672 400.207 393.712 398.057 392.905C396.444 392.367 396.175 396.134 394.562 396.403C393.487 396.672 393.219 394.519 392.143 393.981C391.337 393.712 390.262 393.712 389.993 394.519C389.724 395.327 391.875 396.941 390.799 397.21C387.305 398.556 383.542 397.749 379.779 397.749C378.435 397.749 376.285 396.672 375.747 398.018C374.941 400.17 375.478 402.861 376.554 405.283C376.822 406.09 378.435 405.283 379.241 405.283C380.048 405.014 380.854 404.476 381.392 405.014C382.198 405.552 381.929 406.897 381.929 407.705C381.661 408.512 381.123 409.588 380.317 409.588C379.51 409.588 378.973 407.705 377.897 407.705C376.554 407.974 374.672 408.781 374.134 410.127C373.328 412.279 373.866 414.701 374.134 416.854C374.403 417.661 374.941 418.199 375.747 419.006C376.285 419.275 377.36 419.275 377.629 420.083C378.435 420.89 378.166 421.966 378.704 423.043C378.973 423.85 379.779 424.388 379.779 425.195C379.779 426.541 378.973 427.617 378.973 428.963C378.973 430.039 379.51 431.384 379.241 432.461C378.435 438.381 377.36 444.57 376.016 450.49C375.478 452.911 375.478 455.871 373.866 457.486C373.059 458.293 371.715 455.333 370.64 455.602C369.027 455.871 368.49 458.024 366.877 458.293C366.071 458.562 365.264 456.948 364.458 457.217C363.652 457.217 363.383 458.293 362.576 458.562C361.77 459.1 360.695 458.293 359.889 458.562C358.276 459.369 357.201 460.715 355.857 461.791C354.513 462.868 352.9 463.406 351.825 464.751C350.481 466.097 349.675 467.98 349.137 469.595C348.599 470.94 348.331 472.286 348.062 473.631C348.062 474.707 348.331 475.784 348.062 476.86C347.793 478.206 347.793 479.82 346.718 480.896C346.18 481.973 344.299 481.435 343.761 482.511C342.955 483.856 343.224 485.471 343.224 486.816C343.224 487.624 343.761 488.7 343.224 489.238C342.686 490.045 341.342 489.507 341.073 490.314C340.804 490.853 341.342 491.66 341.611 492.198C342.148 492.736 342.955 492.736 343.492 493.274C344.03 493.813 343.761 494.889 344.03 495.427C344.299 496.234 344.568 497.042 345.105 497.58ZM552.073 418.737C552.88 417.392 553.686 415.777 554.761 414.432C555.568 413.625 556.912 411.203 557.718 412.01C558.793 413.356 557.449 415.508 556.912 416.854C556.374 418.468 555.299 420.083 553.955 421.159C552.88 422.235 550.998 424.926 549.923 423.581C548.579 422.235 551.267 420.352 552.073 418.737ZM560.943 414.97C560.675 416.046 561.75 417.123 561.75 418.199C561.481 419.275 560.137 419.814 560.137 420.621C559.868 421.966 560.137 423.581 560.943 424.657C561.481 425.195 562.825 424.657 563.363 425.195C563.9 425.734 562.825 426.81 563.363 427.079C564.707 427.617 566.05 427.079 567.126 427.348C567.932 427.348 568.47 428.155 569.276 427.886C569.814 427.886 569.545 426.81 570.082 426.272C571.158 425.734 572.233 426.003 573.039 425.464C574.114 425.195 574.652 424.119 575.727 424.119C576.265 424.119 576.533 425.195 577.34 425.195C577.877 425.195 578.684 424.657 578.952 423.85C578.952 423.043 577.608 421.697 578.146 420.89C578.952 419.545 581.103 419.545 582.178 418.199C583.253 416.854 585.672 414.97 584.597 413.356C583.253 411.472 579.759 410.934 577.608 412.01C575.996 413.086 577.608 416.316 576.265 417.93C575.727 418.737 575.189 416.046 575.189 414.97C575.189 414.432 576.533 414.701 576.533 414.163C576.533 413.356 575.996 412.548 575.458 412.279C573.577 411.472 571.695 411.741 569.814 411.741C568.201 411.472 566.319 411.472 564.707 411.741C563.9 412.01 563.363 412.817 562.556 413.356C562.019 413.894 560.943 414.163 560.943 414.97ZM566.051 410.127C567.663 409.857 569.276 410.396 570.351 409.588C571.158 409.05 571.964 407.436 571.426 406.897C570.082 405.821 567.932 407.167 566.588 406.359C566.05 405.821 568.201 403.938 567.394 403.938C565.782 403.938 564.438 405.014 563.363 406.09C562.556 406.628 561.75 407.436 561.75 408.512C561.481 409.319 561.75 410.396 562.556 410.665C563.094 410.934 563.094 409.588 563.363 409.05C563.9 408.512 563.9 407.705 564.707 407.436C564.975 407.167 565.782 407.705 565.513 408.243C565.513 409.05 563.9 409.588 564.169 410.127C564.169 410.934 565.513 410.127 566.051 410.127ZM558.793 409.857C557.718 410.127 558.256 412.548 558.793 413.356C559.331 414.163 560.943 413.625 560.943 413.086C560.943 411.741 560.137 409.588 558.793 409.857Z" fill="black"/>
<path d="M489.991 643.115L489.993 643.117C493.503 647.908 499.096 650.688 504.974 650.688C505.613 650.688 506.293 650.661 506.942 650.57C513.531 649.874 519.233 645.751 521.9 639.729L521.9 639.729L612.918 434.092H705.753H707.253V432.592V399V397.5H705.753H600.836C593.508 397.5 586.867 401.797 583.91 408.456L583.909 408.457L501.031 595.725L447.561 522.446L447.56 522.445C444.078 517.681 438.513 514.874 432.578 514.874H380H378.5V516.374V549.967V551.467H380H423.133L489.991 643.115Z" fill="black" stroke="url(#paint0_linear_85_75)" stroke-width="3"/>
</g>
<defs>
<linearGradient id="paint0_linear_85_75" x1="599.883" y1="286.415" x2="597.482" y2="705.49" gradientUnits="userSpaceOnUse">
<stop stop-color="#00C389"/>
<stop offset="0.0627847" stop-color="#0CCCB8"/>
<stop offset="0.191971" stop-color="#1EDAFC"/>
<stop offset="0.406046" stop-color="#1568D5" stop-opacity="0.94"/>
<stop offset="0.538576" stop-color="#102DC0" stop-opacity="0.91"/>
<stop offset="0.687331" stop-color="#6635C3" stop-opacity="0.83"/>
<stop offset="0.930043" stop-color="#FC42C9"/>
</linearGradient>
<clipPath id="clip0_85_75">
<rect width="1080" height="1080" fill="white"/>
</clipPath>
</defs>
</svg>
